<mxfile host="Electron" agent="Mozilla/5.0 (Windows NT 10.0; Win64; x64) AppleWebKit/537.36 (KHTML, like Gecko) draw.io/27.0.2 Chrome/134.0.6998.205 Electron/35.3.0 Safari/537.36" version="27.0.2" pages="4">
  <diagram name="Network" id="bxtuVUIZKK-GRJjP9FBY">
    <mxGraphModel dx="970" dy="662" grid="1" gridSize="10" guides="1" tooltips="1" connect="1" arrows="1" fold="1" page="1" pageScale="1" pageWidth="850" pageHeight="1100" math="0" shadow="0">
      <root>
        <mxCell id="0" />
        <mxCell id="1" parent="0" />
        <mxCell id="AH6rLiMWrSHEaaZjbUMH-1" value="Raspberry Pie" style="swimlane;whiteSpace=wrap;html=1;" parent="1" vertex="1">
          <mxGeometry x="220" y="10" width="310" height="250" as="geometry">
            <mxRectangle x="540" y="160" width="120" height="30" as="alternateBounds" />
          </mxGeometry>
        </mxCell>
        <mxCell id="AH6rLiMWrSHEaaZjbUMH-2" value="MQTT&lt;div&gt;Broker&lt;/div&gt;" style="shape=cylinder3;whiteSpace=wrap;html=1;boundedLbl=1;backgroundOutline=1;size=15;" parent="AH6rLiMWrSHEaaZjbUMH-1" vertex="1">
          <mxGeometry x="240" y="160" width="60" height="80" as="geometry" />
        </mxCell>
        <mxCell id="AH6rLiMWrSHEaaZjbUMH-3" value="Telegram&lt;div&gt;Bot&lt;/div&gt;" style="shape=cylinder3;whiteSpace=wrap;html=1;boundedLbl=1;backgroundOutline=1;size=15;" parent="AH6rLiMWrSHEaaZjbUMH-1" vertex="1">
          <mxGeometry x="30" y="160" width="60" height="80" as="geometry" />
        </mxCell>
        <mxCell id="AH6rLiMWrSHEaaZjbUMH-5" value="" style="endArrow=classic;html=1;rounded=0;startArrow=classic;startFill=1;" parent="AH6rLiMWrSHEaaZjbUMH-1" source="AH6rLiMWrSHEaaZjbUMH-3" target="hd0nq5TyP3noiNA4E5WZ-1" edge="1">
          <mxGeometry relative="1" as="geometry">
            <mxPoint x="20" y="80" as="sourcePoint" />
            <mxPoint x="120" y="80" as="targetPoint" />
          </mxGeometry>
        </mxCell>
        <mxCell id="hd0nq5TyP3noiNA4E5WZ-2" style="rounded=0;orthogonalLoop=1;jettySize=auto;html=1;startArrow=classic;startFill=1;" parent="AH6rLiMWrSHEaaZjbUMH-1" source="hd0nq5TyP3noiNA4E5WZ-1" target="AH6rLiMWrSHEaaZjbUMH-2" edge="1">
          <mxGeometry relative="1" as="geometry" />
        </mxCell>
        <mxCell id="hd0nq5TyP3noiNA4E5WZ-5" style="rounded=0;orthogonalLoop=1;jettySize=auto;html=1;endArrow=classic;endFill=1;startArrow=classic;startFill=1;" parent="AH6rLiMWrSHEaaZjbUMH-1" source="hd0nq5TyP3noiNA4E5WZ-3" target="hd0nq5TyP3noiNA4E5WZ-1" edge="1">
          <mxGeometry relative="1" as="geometry" />
        </mxCell>
        <mxCell id="hd0nq5TyP3noiNA4E5WZ-3" value="Repository" style="shape=cylinder3;whiteSpace=wrap;html=1;boundedLbl=1;backgroundOutline=1;size=15;" parent="AH6rLiMWrSHEaaZjbUMH-1" vertex="1">
          <mxGeometry x="240" y="57.93" width="60" height="80" as="geometry" />
        </mxCell>
        <mxCell id="hd0nq5TyP3noiNA4E5WZ-13" value="ASP.NET Core MVC" style="swimlane;whiteSpace=wrap;html=1;" parent="AH6rLiMWrSHEaaZjbUMH-1" vertex="1">
          <mxGeometry x="15" y="30" width="200" height="120" as="geometry" />
        </mxCell>
        <mxCell id="hd0nq5TyP3noiNA4E5WZ-1" value="&lt;div&gt;WEB&lt;/div&gt;API" style="shape=cylinder3;whiteSpace=wrap;html=1;boundedLbl=1;backgroundOutline=1;size=15;" parent="hd0nq5TyP3noiNA4E5WZ-13" vertex="1">
          <mxGeometry x="115" y="27.93" width="60" height="80" as="geometry" />
        </mxCell>
        <mxCell id="AH6rLiMWrSHEaaZjbUMH-4" value="WEB&lt;div&gt;Panel&lt;/div&gt;" style="shape=cylinder3;whiteSpace=wrap;html=1;boundedLbl=1;backgroundOutline=1;size=15;" parent="hd0nq5TyP3noiNA4E5WZ-13" vertex="1">
          <mxGeometry x="25" y="27.93" width="60" height="80" as="geometry" />
        </mxCell>
        <mxCell id="AH6rLiMWrSHEaaZjbUMH-6" value="" style="endArrow=classic;html=1;rounded=0;startArrow=classic;startFill=1;" parent="hd0nq5TyP3noiNA4E5WZ-13" source="AH6rLiMWrSHEaaZjbUMH-4" target="hd0nq5TyP3noiNA4E5WZ-1" edge="1">
          <mxGeometry relative="1" as="geometry">
            <mxPoint x="66" y="136" as="sourcePoint" />
            <mxPoint x="85" y="70" as="targetPoint" />
          </mxGeometry>
        </mxCell>
        <mxCell id="AH6rLiMWrSHEaaZjbUMH-7" value="Clients" style="swimlane;whiteSpace=wrap;html=1;startSize=20;" parent="1" vertex="1">
          <mxGeometry x="220" y="280" width="140" height="120" as="geometry" />
        </mxCell>
        <mxCell id="AH6rLiMWrSHEaaZjbUMH-8" value="D1 mini&lt;br&gt;&lt;div&gt;BMP280&lt;/div&gt;" style="sketch=0;outlineConnect=0;fontColor=#232F3E;gradientColor=none;fillColor=light-dark(#000000, #61820b);strokeColor=none;dashed=0;verticalLabelPosition=bottom;verticalAlign=top;align=center;html=1;fontSize=12;fontStyle=0;aspect=fixed;pointerEvents=1;shape=mxgraph.aws4.iot_thing_temperature_humidity_sensor;strokeWidth=1;" parent="AH6rLiMWrSHEaaZjbUMH-7" vertex="1">
          <mxGeometry x="10" y="30" width="50" height="50" as="geometry" />
        </mxCell>
        <mxCell id="AH6rLiMWrSHEaaZjbUMH-9" value="NodeMcu&lt;br&gt;&lt;div&gt;Rele&lt;/div&gt;" style="sketch=0;outlineConnect=0;fontColor=#232F3E;gradientColor=none;fillColor=#000000;strokeColor=none;dashed=0;verticalLabelPosition=bottom;verticalAlign=top;align=center;html=1;fontSize=12;fontStyle=0;aspect=fixed;pointerEvents=1;shape=mxgraph.aws4.iot_thing_relay;" parent="AH6rLiMWrSHEaaZjbUMH-7" vertex="1">
          <mxGeometry x="75" y="30" width="50" height="50" as="geometry" />
        </mxCell>
        <mxCell id="AH6rLiMWrSHEaaZjbUMH-11" value="Telegram&lt;div&gt;Server&lt;/div&gt;" style="ellipse;shape=cloud;whiteSpace=wrap;html=1;" parent="1" vertex="1">
          <mxGeometry x="59" y="170" width="120" height="80" as="geometry" />
        </mxCell>
        <mxCell id="AH6rLiMWrSHEaaZjbUMH-14" value="" style="endArrow=classic;html=1;rounded=0;dashed=1;startArrow=classic;startFill=1;" parent="1" source="AH6rLiMWrSHEaaZjbUMH-7" target="AH6rLiMWrSHEaaZjbUMH-2" edge="1">
          <mxGeometry relative="1" as="geometry">
            <mxPoint x="390" y="106" as="sourcePoint" />
            <mxPoint x="290" y="106" as="targetPoint" />
          </mxGeometry>
        </mxCell>
        <mxCell id="AH6rLiMWrSHEaaZjbUMH-15" value="SUB/PUB" style="edgeLabel;resizable=0;html=1;;align=center;verticalAlign=middle;" parent="AH6rLiMWrSHEaaZjbUMH-14" connectable="0" vertex="1">
          <mxGeometry relative="1" as="geometry" />
        </mxCell>
        <mxCell id="AH6rLiMWrSHEaaZjbUMH-16" value="" style="endArrow=classic;html=1;rounded=0;dashed=1;startArrow=classic;startFill=1;" parent="1" source="AH6rLiMWrSHEaaZjbUMH-11" target="AH6rLiMWrSHEaaZjbUMH-3" edge="1">
          <mxGeometry width="50" height="50" relative="1" as="geometry">
            <mxPoint x="110" y="216" as="sourcePoint" />
            <mxPoint x="-115" y="192" as="targetPoint" />
          </mxGeometry>
        </mxCell>
        <mxCell id="AH6rLiMWrSHEaaZjbUMH-17" value="&lt;div style=&quot;line-height: 80%;&quot;&gt;&lt;span style=&quot;font-size: 11px; background-color: transparent; color: light-dark(rgb(0, 0, 0), rgb(255, 255, 255));&quot;&gt;Local&lt;/span&gt;&lt;div&gt;&lt;font style=&quot;line-height: 80%; font-size: 11px;&quot;&gt;network&lt;/font&gt;&lt;/div&gt;&lt;/div&gt;" style="rhombus;whiteSpace=wrap;html=1;" parent="1" vertex="1">
          <mxGeometry x="79.5" y="67.93" width="79" height="79" as="geometry" />
        </mxCell>
        <mxCell id="AH6rLiMWrSHEaaZjbUMH-18" value="&lt;div style=&quot;line-height: 100%;&quot;&gt;User&lt;/div&gt;" style="sketch=0;html=1;aspect=fixed;strokeColor=none;shadow=0;fillColor=#000000;verticalAlign=top;labelPosition=center;verticalLabelPosition=bottom;shape=mxgraph.gcp2.phone_android" parent="1" vertex="1">
          <mxGeometry x="10" y="120" width="21.8" height="38.93" as="geometry" />
        </mxCell>
        <mxCell id="AH6rLiMWrSHEaaZjbUMH-19" value="" style="endArrow=classic;html=1;rounded=0;dashed=1;startArrow=classic;startFill=1;" parent="1" source="AH6rLiMWrSHEaaZjbUMH-18" target="AH6rLiMWrSHEaaZjbUMH-17" edge="1">
          <mxGeometry width="50" height="50" relative="1" as="geometry">
            <mxPoint x="180" y="256" as="sourcePoint" />
            <mxPoint x="260" y="226" as="targetPoint" />
          </mxGeometry>
        </mxCell>
        <mxCell id="AH6rLiMWrSHEaaZjbUMH-20" value="" style="endArrow=classic;html=1;rounded=0;startArrow=classic;startFill=1;dashed=1;" parent="1" source="AH6rLiMWrSHEaaZjbUMH-17" target="AH6rLiMWrSHEaaZjbUMH-4" edge="1">
          <mxGeometry width="50" height="50" relative="1" as="geometry">
            <mxPoint x="230" y="186" as="sourcePoint" />
            <mxPoint x="280" y="136" as="targetPoint" />
          </mxGeometry>
        </mxCell>
        <mxCell id="AH6rLiMWrSHEaaZjbUMH-21" value="" style="endArrow=classic;startArrow=classic;html=1;rounded=0;dashed=1;" parent="1" source="AH6rLiMWrSHEaaZjbUMH-18" target="AH6rLiMWrSHEaaZjbUMH-11" edge="1">
          <mxGeometry width="50" height="50" relative="1" as="geometry">
            <mxPoint x="230" y="186" as="sourcePoint" />
            <mxPoint x="280" y="136" as="targetPoint" />
          </mxGeometry>
        </mxCell>
      </root>
    </mxGraphModel>
  </diagram>
  <diagram id="_qwffhJA_S49xdZ-CM6p" name="UI-usecase">
    <mxGraphModel dx="666" dy="1035" grid="1" gridSize="10" guides="1" tooltips="1" connect="1" arrows="1" fold="1" page="1" pageScale="1" pageWidth="850" pageHeight="1100" math="0" shadow="0">
      <root>
        <mxCell id="0" />
        <mxCell id="1" parent="0" />
        <mxCell id="wViVZvwEc8lUCg_X38cb-1" value="main" style="rounded=0;whiteSpace=wrap;html=1;fillColor=#f8cecc;strokeColor=#b85450;" vertex="1" parent="1">
          <mxGeometry x="880" y="160" width="120" height="30" as="geometry" />
        </mxCell>
        <mxCell id="wViVZvwEc8lUCg_X38cb-2" value="&lt;i&gt;subscriptions info&lt;/i&gt;" style="rounded=0;whiteSpace=wrap;html=1;dashed=1;fillColor=#dae8fc;strokeColor=#6c8ebf;" vertex="1" parent="1">
          <mxGeometry x="880" y="190" width="120" height="30" as="geometry" />
        </mxCell>
        <mxCell id="wViVZvwEc8lUCg_X38cb-21" style="edgeStyle=orthogonalEdgeStyle;rounded=0;orthogonalLoop=1;jettySize=auto;html=1;exitX=1;exitY=0.5;exitDx=0;exitDy=0;" edge="1" parent="1" source="wViVZvwEc8lUCg_X38cb-5" target="wViVZvwEc8lUCg_X38cb-22">
          <mxGeometry relative="1" as="geometry">
            <mxPoint x="1020" y="235" as="targetPoint" />
          </mxGeometry>
        </mxCell>
        <mxCell id="wViVZvwEc8lUCg_X38cb-5" value="&lt;i&gt;publication buttons&lt;/i&gt;" style="rounded=0;whiteSpace=wrap;html=1;dashed=1;fillColor=#d5e8d4;strokeColor=#82b366;" vertex="1" parent="1">
          <mxGeometry x="880" y="220" width="120" height="30" as="geometry" />
        </mxCell>
        <mxCell id="wViVZvwEc8lUCg_X38cb-27" style="edgeStyle=orthogonalEdgeStyle;rounded=0;orthogonalLoop=1;jettySize=auto;html=1;exitX=1;exitY=0.5;exitDx=0;exitDy=0;entryX=0;entryY=0.5;entryDx=0;entryDy=0;" edge="1" parent="1" source="wViVZvwEc8lUCg_X38cb-6" target="wViVZvwEc8lUCg_X38cb-23">
          <mxGeometry relative="1" as="geometry" />
        </mxCell>
        <mxCell id="wViVZvwEc8lUCg_X38cb-6" value="&lt;i&gt;settings&lt;/i&gt;" style="rounded=0;whiteSpace=wrap;html=1;dashed=1;fillColor=#fff2cc;strokeColor=#d6b656;" vertex="1" parent="1">
          <mxGeometry x="880" y="250" width="120" height="30" as="geometry" />
        </mxCell>
        <mxCell id="wViVZvwEc8lUCg_X38cb-10" value="user managment&lt;span style=&quot;color: rgba(0, 0, 0, 0); font-family: monospace; font-size: 0px; text-align: start; text-wrap-mode: nowrap;&quot;&gt;%3CmxGraphModel%3E%3Croot%3E%3CmxCell%20id%3D%220%22%2F%3E%3CmxCell%20id%3D%221%22%20parent%3D%220%22%2F%3E%3CmxCell%20id%3D%222%22%20value%3D%22main%22%20style%3D%22rounded%3D0%3BwhiteSpace%3Dwrap%3Bhtml%3D1%3B%22%20vertex%3D%221%22%20parent%3D%221%22%3E%3CmxGeometry%20x%3D%22950%22%20y%3D%22120%22%20width%3D%22120%22%20height%3D%2230%22%20as%3D%22geometry%22%2F%3E%3C%2FmxCell%3E%3C%2Froot%3E%3C%2FmxGraphModel%3E&lt;/span&gt;&lt;span style=&quot;color: rgba(0, 0, 0, 0); font-family: monospace; font-size: 0px; text-align: start; text-wrap-mode: nowrap;&quot;&gt;%3CmxGraphModel%3E%3Croot%3E%3CmxCell%20id%3D%220%22%2F%3E%3CmxCell%20id%3D%221%22%20parent%3D%220%22%2F%3E%3CmxCell%20id%3D%222%22%20value%3D%22main%22%20style%3D%22rounded%3D0%3BwhiteSpace%3Dwrap%3Bhtml%3D1%3B%22%20vertex%3D%221%22%20parent%3D%221%22%3E%3CmxGeometry%20x%3D%22950%22%20y%3D%22120%22%20width%3D%22120%22%20height%3D%2230%22%20as%3D%22geometry%22%2F%3E%3C%2FmxCell%3E%3C%2Froot%3E%3C%2FmxGraphModel%3E&lt;/span&gt;" style="rounded=0;whiteSpace=wrap;html=1;fillColor=#f8cecc;strokeColor=#b85450;" vertex="1" parent="1">
          <mxGeometry x="1200" y="131.25" width="120" height="30" as="geometry" />
        </mxCell>
        <mxCell id="wViVZvwEc8lUCg_X38cb-11" value="device managment&lt;span style=&quot;color: rgba(0, 0, 0, 0); font-family: monospace; font-size: 0px; text-align: start; text-wrap-mode: nowrap;&quot;&gt;%3CmxGraphModel%3E%3Croot%3E%3CmxCell%20id%3D%220%22%2F%3E%3CmxCell%20id%3D%221%22%20parent%3D%220%22%2F%3E%3CmxCell%20id%3D%222%22%20value%3D%22main%22%20style%3D%22rounded%3D0%3BwhiteSpace%3Dwrap%3Bhtml%3D1%3B%22%20vertex%3D%221%22%20parent%3D%221%22%3E%3CmxGeometry%20x%3D%22950%22%20y%3D%22120%22%20width%3D%22120%22%20height%3D%2230%22%20as%3D%22geometry%22%2F%3E%3C%2FmxCell%3E%3C%2Froot%3E%3C%2FmxGraphModel%3E&lt;/span&gt;&lt;span style=&quot;color: rgba(0, 0, 0, 0); font-family: monospace; font-size: 0px; text-align: start; text-wrap-mode: nowrap;&quot;&gt;%3CmxGraphModel%3E%3Croot%3E%3CmxCell%20id%3D%220%22%2F%3E%3CmxCell%20id%3D%221%22%20parent%3D%220%22%2F%3E%3CmxCell%20id%3D%222%22%20value%3D%22main%22%20style%3D%22rounded%3D0%3BwhiteSpace%3Dwrap%3Bhtml%3D1%3B%22%20vertex%3D%221%22%20parent%3D%221%22%3E%3CmxGeometry%20x%3D%22950%22%20y%3D%22120%22%20width%3D%22120%22%20height%3D%2230%22%20as%3D%22geometry%22%2F%3E%3C%2FmxCell%3E%3C%2Froot%3E%3C%2FmxGraphModel%3E&lt;/span&gt;" style="rounded=0;whiteSpace=wrap;html=1;fillColor=#f8cecc;strokeColor=#b85450;" vertex="1" parent="1">
          <mxGeometry x="1200" y="311.25" width="120" height="30" as="geometry" />
        </mxCell>
        <mxCell id="wViVZvwEc8lUCg_X38cb-12" value="menu managment&lt;span style=&quot;color: rgba(0, 0, 0, 0); font-family: monospace; font-size: 0px; text-align: start; text-wrap-mode: nowrap;&quot;&gt;%3CmxGraphModel%3E%3Croot%3E%3CmxCell%20id%3D%220%22%2F%3E%3CmxCell%20id%3D%221%22%20parent%3D%220%22%2F%3E%3CmxCell%20id%3D%222%22%20value%3D%22main%22%20style%3D%22rounded%3D0%3BwhiteSpace%3Dwrap%3Bhtml%3D1%3B%22%20vertex%3D%221%22%20parent%3D%221%22%3E%3CmxGeometry%20x%3D%22950%22%20y%3D%22120%22%20width%3D%22120%22%20height%3D%2230%22%20as%3D%22geometry%22%2F%3E%3C%2FmxCell%3E%3C%2Froot%3E%3C%2FmxGraphModel%3E&lt;/span&gt;&lt;span style=&quot;color: rgba(0, 0, 0, 0); font-family: monospace; font-size: 0px; text-align: start; text-wrap-mode: nowrap;&quot;&gt;%3CmxGraphModel%3E%3Croot%3E%3CmxCell%20id%3D%220%22%2F%3E%3CmxCell%20id%3D%221%22%20parent%3D%220%22%2F%3E%3CmxCell%20id%3D%222%22%20value%3D%22main%22%20style%3D%22rounded%3D0%3BwhiteSpace%3Dwrap%3Bhtml%3D1%3B%22%20vertex%3D%221%22%20parent%3D%221%22%3E%3CmxGeometry%20x%3D%22950%22%20y%3D%22120%22%20width%3D%22120%22%20height%3D%2230%22%20as%3D%22geometry%22%2F%3E%3C%2FmxCell%3E%3C%2Froot%3E%3C%2FmxGraphModel%3E&lt;/span&gt;" style="rounded=0;whiteSpace=wrap;html=1;fillColor=#f8cecc;strokeColor=#b85450;" vertex="1" parent="1">
          <mxGeometry x="1200" y="480" width="120" height="30" as="geometry" />
        </mxCell>
        <mxCell id="wViVZvwEc8lUCg_X38cb-56" style="edgeStyle=orthogonalEdgeStyle;rounded=0;orthogonalLoop=1;jettySize=auto;html=1;exitX=1;exitY=0.5;exitDx=0;exitDy=0;entryX=0;entryY=0.5;entryDx=0;entryDy=0;" edge="1" parent="1" source="wViVZvwEc8lUCg_X38cb-15" target="wViVZvwEc8lUCg_X38cb-52">
          <mxGeometry relative="1" as="geometry" />
        </mxCell>
        <mxCell id="wViVZvwEc8lUCg_X38cb-15" value="&lt;i&gt;all users&lt;/i&gt;" style="rounded=0;whiteSpace=wrap;html=1;dashed=1;fillColor=#fff2cc;strokeColor=#d6b656;" vertex="1" parent="1">
          <mxGeometry x="1200" y="191.25" width="120" height="30" as="geometry" />
        </mxCell>
        <mxCell id="wViVZvwEc8lUCg_X38cb-55" style="edgeStyle=orthogonalEdgeStyle;rounded=0;orthogonalLoop=1;jettySize=auto;html=1;exitX=1;exitY=0.5;exitDx=0;exitDy=0;entryX=0;entryY=0.5;entryDx=0;entryDy=0;" edge="1" parent="1" source="wViVZvwEc8lUCg_X38cb-16" target="wViVZvwEc8lUCg_X38cb-46">
          <mxGeometry relative="1" as="geometry" />
        </mxCell>
        <mxCell id="wViVZvwEc8lUCg_X38cb-16" value="&lt;i&gt;active requests&lt;/i&gt;" style="rounded=0;whiteSpace=wrap;html=1;dashed=1;fillColor=#fff2cc;strokeColor=#d6b656;" vertex="1" parent="1">
          <mxGeometry x="1200" y="161.25" width="120" height="30" as="geometry" />
        </mxCell>
        <mxCell id="wViVZvwEc8lUCg_X38cb-74" style="edgeStyle=orthogonalEdgeStyle;rounded=0;orthogonalLoop=1;jettySize=auto;html=1;exitX=1;exitY=0.5;exitDx=0;exitDy=0;entryX=0;entryY=0.5;entryDx=0;entryDy=0;" edge="1" parent="1" source="wViVZvwEc8lUCg_X38cb-17" target="wViVZvwEc8lUCg_X38cb-38">
          <mxGeometry relative="1" as="geometry" />
        </mxCell>
        <mxCell id="wViVZvwEc8lUCg_X38cb-17" value="&lt;i&gt;create device request&lt;/i&gt;" style="rounded=0;whiteSpace=wrap;html=1;dashed=1;fillColor=#fff2cc;strokeColor=#d6b656;" vertex="1" parent="1">
          <mxGeometry x="1200" y="341.25" width="120" height="30" as="geometry" />
        </mxCell>
        <mxCell id="wViVZvwEc8lUCg_X38cb-75" style="edgeStyle=orthogonalEdgeStyle;rounded=0;orthogonalLoop=1;jettySize=auto;html=1;exitX=1;exitY=0.5;exitDx=0;exitDy=0;entryX=0;entryY=0.5;entryDx=0;entryDy=0;" edge="1" parent="1" source="wViVZvwEc8lUCg_X38cb-20" target="wViVZvwEc8lUCg_X38cb-43">
          <mxGeometry relative="1" as="geometry" />
        </mxCell>
        <mxCell id="wViVZvwEc8lUCg_X38cb-20" value="&lt;i&gt;devices&lt;/i&gt;" style="rounded=0;whiteSpace=wrap;html=1;dashed=1;fillColor=#fff2cc;strokeColor=#d6b656;" vertex="1" parent="1">
          <mxGeometry x="1200" y="371.25" width="120" height="30" as="geometry" />
        </mxCell>
        <mxCell id="wViVZvwEc8lUCg_X38cb-22" value="do publish&amp;nbsp;" style="shape=parallelogram;perimeter=parallelogramPerimeter;whiteSpace=wrap;html=1;fixedSize=1;" vertex="1" parent="1">
          <mxGeometry x="1040" y="225.63" width="120" height="18.75" as="geometry" />
        </mxCell>
        <mxCell id="wViVZvwEc8lUCg_X38cb-23" value="settings" style="rounded=0;whiteSpace=wrap;html=1;fillColor=#f8cecc;strokeColor=#b85450;" vertex="1" parent="1">
          <mxGeometry x="1040" y="250" width="120" height="30" as="geometry" />
        </mxCell>
        <mxCell id="wViVZvwEc8lUCg_X38cb-28" style="edgeStyle=orthogonalEdgeStyle;rounded=0;orthogonalLoop=1;jettySize=auto;html=1;exitX=1;exitY=0.5;exitDx=0;exitDy=0;entryX=0;entryY=0.5;entryDx=0;entryDy=0;" edge="1" parent="1" source="wViVZvwEc8lUCg_X38cb-24" target="wViVZvwEc8lUCg_X38cb-10">
          <mxGeometry relative="1" as="geometry" />
        </mxCell>
        <mxCell id="wViVZvwEc8lUCg_X38cb-24" value="user managment&lt;span style=&quot;text-wrap-mode: nowrap; color: rgba(0, 0, 0, 0); font-family: monospace; font-size: 0px; text-align: start;&quot;&gt;%3CmxGraphModel%3E%3Croot%3E%3CmxCell%20id%3D%220%22%2F%3E%3CmxCell%20id%3D%221%22%20parent%3D%220%22%2F%3E%3CmxCell%20id%3D%222%22%20value%3D%22main%22%20style%3D%22rounded%3D0%3BwhiteSpace%3Dwrap%3Bhtml%3D1%3B%22%20vertex%3D%221%22%20parent%3D%221%22%3E%3CmxGeometry%20x%3D%22950%22%20y%3D%22120%22%20width%3D%22120%22%20height%3D%2230%22%20as%3D%22geometry%22%2F%3E%3C%2FmxCell%3E%3C%2Froot%3E%3C%2FmxGraphModel%3E&lt;/span&gt;&lt;span style=&quot;text-wrap-mode: nowrap; color: rgba(0, 0, 0, 0); font-family: monospace; font-size: 0px; text-align: start;&quot;&gt;%3CmxGraphModel%3E%3Croot%3E%3CmxCell%20id%3D%220%22%2F%3E%3CmxCell%20id%3D%221%22%20parent%3D%220%22%2F%3E%3CmxCell%20id%3D%222%22%20value%3D%22main%22%20style%3D%22rounded%3D0%3BwhiteSpace%3Dwrap%3Bhtml%3D1%3B%22%20vertex%3D%221%22%20parent%3D%221%22%3E%3CmxGeometry%20x%3D%22950%22%20y%3D%22120%22%20width%3D%22120%22%20height%3D%2230%22%20as%3D%22geometry%22%2F%3E%3C%2FmxCell%3E%3C%2Froot%3E%3C%2FmxGraphModel%3E&lt;/span&gt;" style="rounded=0;whiteSpace=wrap;html=1;dashed=1;fillColor=#fff2cc;strokeColor=#d6b656;" vertex="1" parent="1">
          <mxGeometry x="1040" y="281.25" width="120" height="30" as="geometry" />
        </mxCell>
        <mxCell id="wViVZvwEc8lUCg_X38cb-29" style="edgeStyle=orthogonalEdgeStyle;rounded=0;orthogonalLoop=1;jettySize=auto;html=1;exitX=1;exitY=0.5;exitDx=0;exitDy=0;entryX=0;entryY=0.5;entryDx=0;entryDy=0;" edge="1" parent="1" source="wViVZvwEc8lUCg_X38cb-25" target="wViVZvwEc8lUCg_X38cb-11">
          <mxGeometry relative="1" as="geometry" />
        </mxCell>
        <mxCell id="wViVZvwEc8lUCg_X38cb-25" value="device managment&lt;span style=&quot;text-wrap-mode: nowrap; color: rgba(0, 0, 0, 0); font-family: monospace; font-size: 0px; text-align: start;&quot;&gt;%3CmxGraphModel%3E%3Croot%3E%3CmxCell%20id%3D%220%22%2F%3E%3CmxCell%20id%3D%221%22%20parent%3D%220%22%2F%3E%3CmxCell%20id%3D%222%22%20value%3D%22main%22%20style%3D%22rounded%3D0%3BwhiteSpace%3Dwrap%3Bhtml%3D1%3B%22%20vertex%3D%221%22%20parent%3D%221%22%3E%3CmxGeometry%20x%3D%22950%22%20y%3D%22120%22%20width%3D%22120%22%20height%3D%2230%22%20as%3D%22geometry%22%2F%3E%3C%2FmxCell%3E%3C%2Froot%3E%3C%2FmxGraphModel%3E&lt;/span&gt;&lt;span style=&quot;text-wrap-mode: nowrap; color: rgba(0, 0, 0, 0); font-family: monospace; font-size: 0px; text-align: start;&quot;&gt;%3CmxGraphModel%3E%3Croot%3E%3CmxCell%20id%3D%220%22%2F%3E%3CmxCell%20id%3D%221%22%20parent%3D%220%22%2F%3E%3CmxCell%20id%3D%222%22%20value%3D%22main%22%20style%3D%22rounded%3D0%3BwhiteSpace%3Dwrap%3Bhtml%3D1%3B%22%20vertex%3D%221%22%20parent%3D%221%22%3E%3CmxGeometry%20x%3D%22950%22%20y%3D%22120%22%20width%3D%22120%22%20height%3D%2230%22%20as%3D%22geometry%22%2F%3E%3C%2FmxCell%3E%3C%2Froot%3E%3C%2FmxGraphModel%3E&lt;/span&gt;" style="rounded=0;whiteSpace=wrap;html=1;dashed=1;fillColor=#fff2cc;strokeColor=#d6b656;" vertex="1" parent="1">
          <mxGeometry x="1040" y="311.25" width="120" height="30" as="geometry" />
        </mxCell>
        <mxCell id="wViVZvwEc8lUCg_X38cb-30" style="edgeStyle=orthogonalEdgeStyle;rounded=0;orthogonalLoop=1;jettySize=auto;html=1;exitX=1;exitY=0.5;exitDx=0;exitDy=0;entryX=0;entryY=0.5;entryDx=0;entryDy=0;" edge="1" parent="1" source="wViVZvwEc8lUCg_X38cb-26" target="wViVZvwEc8lUCg_X38cb-12">
          <mxGeometry relative="1" as="geometry" />
        </mxCell>
        <mxCell id="wViVZvwEc8lUCg_X38cb-26" value="menu managment&lt;span style=&quot;text-wrap-mode: nowrap; color: rgba(0, 0, 0, 0); font-family: monospace; font-size: 0px; text-align: start;&quot;&gt;%3CmxGraphModel%3E%3Croot%3E%3CmxCell%20id%3D%220%22%2F%3E%3CmxCell%20id%3D%221%22%20parent%3D%220%22%2F%3E%3CmxCell%20id%3D%222%22%20value%3D%22main%22%20style%3D%22rounded%3D0%3BwhiteSpace%3Dwrap%3Bhtml%3D1%3B%22%20vertex%3D%221%22%20parent%3D%221%22%3E%3CmxGeometry%20x%3D%22950%22%20y%3D%22120%22%20width%3D%22120%22%20height%3D%2230%22%20as%3D%22geometry%22%2F%3E%3C%2FmxCell%3E%3C%2Froot%3E%3C%2FmxGraphModel%3E&lt;/span&gt;&lt;span style=&quot;text-wrap-mode: nowrap; color: rgba(0, 0, 0, 0); font-family: monospace; font-size: 0px; text-align: start;&quot;&gt;%3CmxGraphModel%3E%3Croot%3E%3CmxCell%20id%3D%220%22%2F%3E%3CmxCell%20id%3D%221%22%20parent%3D%220%22%2F%3E%3CmxCell%20id%3D%222%22%20value%3D%22main%22%20style%3D%22rounded%3D0%3BwhiteSpace%3Dwrap%3Bhtml%3D1%3B%22%20vertex%3D%221%22%20parent%3D%221%22%3E%3CmxGeometry%20x%3D%22950%22%20y%3D%22120%22%20width%3D%22120%22%20height%3D%2230%22%20as%3D%22geometry%22%2F%3E%3C%2FmxCell%3E%3C%2Froot%3E%3C%2FmxGraphModel%3E&lt;/span&gt;" style="rounded=0;whiteSpace=wrap;html=1;dashed=1;fillColor=#fff2cc;strokeColor=#d6b656;" vertex="1" parent="1">
          <mxGeometry x="1040" y="341.25" width="120" height="30" as="geometry" />
        </mxCell>
        <mxCell id="wViVZvwEc8lUCg_X38cb-85" style="edgeStyle=orthogonalEdgeStyle;rounded=0;orthogonalLoop=1;jettySize=auto;html=1;exitX=1;exitY=0.5;exitDx=0;exitDy=0;entryX=0;entryY=0.5;entryDx=0;entryDy=0;" edge="1" parent="1" source="wViVZvwEc8lUCg_X38cb-31" target="wViVZvwEc8lUCg_X38cb-79">
          <mxGeometry relative="1" as="geometry" />
        </mxCell>
        <mxCell id="wViVZvwEc8lUCg_X38cb-31" value="&lt;i&gt;subscriptions&lt;/i&gt;" style="rounded=0;whiteSpace=wrap;html=1;dashed=1;fillColor=#fff2cc;strokeColor=#d6b656;" vertex="1" parent="1">
          <mxGeometry x="1200" y="510" width="120" height="30" as="geometry" />
        </mxCell>
        <mxCell id="wViVZvwEc8lUCg_X38cb-86" style="edgeStyle=orthogonalEdgeStyle;rounded=0;orthogonalLoop=1;jettySize=auto;html=1;exitX=1;exitY=0.5;exitDx=0;exitDy=0;entryX=0;entryY=0.5;entryDx=0;entryDy=0;" edge="1" parent="1" source="wViVZvwEc8lUCg_X38cb-32" target="wViVZvwEc8lUCg_X38cb-82">
          <mxGeometry relative="1" as="geometry" />
        </mxCell>
        <mxCell id="wViVZvwEc8lUCg_X38cb-32" value="&lt;i&gt;publications&lt;/i&gt;" style="rounded=0;whiteSpace=wrap;html=1;dashed=1;fillColor=#fff2cc;strokeColor=#d6b656;" vertex="1" parent="1">
          <mxGeometry x="1200" y="540" width="120" height="30" as="geometry" />
        </mxCell>
        <mxCell id="wViVZvwEc8lUCg_X38cb-38" value="device request" style="rounded=0;whiteSpace=wrap;html=1;fillColor=#f8cecc;strokeColor=#b85450;" vertex="1" parent="1">
          <mxGeometry x="1360" y="300" width="120" height="30" as="geometry" />
        </mxCell>
        <mxCell id="wViVZvwEc8lUCg_X38cb-39" value="&lt;i&gt;token info&lt;/i&gt;" style="rounded=0;whiteSpace=wrap;html=1;dashed=1;fillColor=#dae8fc;strokeColor=#6c8ebf;" vertex="1" parent="1">
          <mxGeometry x="1360" y="330" width="120" height="30" as="geometry" />
        </mxCell>
        <mxCell id="wViVZvwEc8lUCg_X38cb-43" value="&lt;i&gt;devices&lt;/i&gt;" style="rounded=0;whiteSpace=wrap;html=1;fillColor=#f8cecc;strokeColor=#b85450;" vertex="1" parent="1">
          <mxGeometry x="1360" y="371.25" width="120" height="30" as="geometry" />
        </mxCell>
        <mxCell id="wViVZvwEc8lUCg_X38cb-44" value="&lt;i&gt;ping info&lt;/i&gt;" style="rounded=0;whiteSpace=wrap;html=1;dashed=1;fillColor=#dae8fc;strokeColor=#6c8ebf;" vertex="1" parent="1">
          <mxGeometry x="1360" y="401.25" width="120" height="30" as="geometry" />
        </mxCell>
        <mxCell id="wViVZvwEc8lUCg_X38cb-76" style="edgeStyle=orthogonalEdgeStyle;rounded=0;orthogonalLoop=1;jettySize=auto;html=1;exitX=1;exitY=0.5;exitDx=0;exitDy=0;entryX=1;entryY=0.5;entryDx=0;entryDy=0;" edge="1" parent="1" source="wViVZvwEc8lUCg_X38cb-45" target="wViVZvwEc8lUCg_X38cb-44">
          <mxGeometry relative="1" as="geometry">
            <Array as="points">
              <mxPoint x="1510" y="446" />
              <mxPoint x="1510" y="416" />
            </Array>
          </mxGeometry>
        </mxCell>
        <mxCell id="wViVZvwEc8lUCg_X38cb-77" value="&lt;font style=&quot;font-size: 10px;&quot;&gt;shows&lt;/font&gt;&lt;div&gt;&lt;font style=&quot;font-size: 10px;&quot;&gt;info&lt;/font&gt;&lt;/div&gt;" style="edgeLabel;html=1;align=center;verticalAlign=middle;resizable=0;points=[];" vertex="1" connectable="0" parent="wViVZvwEc8lUCg_X38cb-76">
          <mxGeometry x="0.0003" y="1" relative="1" as="geometry">
            <mxPoint as="offset" />
          </mxGeometry>
        </mxCell>
        <mxCell id="wViVZvwEc8lUCg_X38cb-45" value="&lt;i&gt;devices buttons&lt;/i&gt;" style="rounded=0;whiteSpace=wrap;html=1;dashed=1;fillColor=#d5e8d4;strokeColor=#82b366;" vertex="1" parent="1">
          <mxGeometry x="1360" y="431.25" width="120" height="30" as="geometry" />
        </mxCell>
        <mxCell id="wViVZvwEc8lUCg_X38cb-46" value="active requests" style="rounded=0;whiteSpace=wrap;html=1;fillColor=#f8cecc;strokeColor=#b85450;" vertex="1" parent="1">
          <mxGeometry x="1360" y="81.25" width="120" height="30" as="geometry" />
        </mxCell>
        <mxCell id="wViVZvwEc8lUCg_X38cb-47" value="&lt;i&gt;info&lt;/i&gt;" style="rounded=0;whiteSpace=wrap;html=1;dashed=1;fillColor=#dae8fc;strokeColor=#6c8ebf;" vertex="1" parent="1">
          <mxGeometry x="1360" y="111.25" width="120" height="30" as="geometry" />
        </mxCell>
        <mxCell id="wViVZvwEc8lUCg_X38cb-60" style="edgeStyle=orthogonalEdgeStyle;rounded=0;orthogonalLoop=1;jettySize=auto;html=1;exitX=1;exitY=0.5;exitDx=0;exitDy=0;entryX=0;entryY=0.5;entryDx=0;entryDy=0;" edge="1" parent="1" source="wViVZvwEc8lUCg_X38cb-48" target="wViVZvwEc8lUCg_X38cb-57">
          <mxGeometry relative="1" as="geometry" />
        </mxCell>
        <mxCell id="wViVZvwEc8lUCg_X38cb-48" value="&lt;i&gt;requests list&lt;/i&gt;" style="rounded=0;whiteSpace=wrap;html=1;dashed=1;fillColor=#d5e8d4;strokeColor=#82b366;" vertex="1" parent="1">
          <mxGeometry x="1360" y="141.25" width="120" height="30" as="geometry" />
        </mxCell>
        <mxCell id="wViVZvwEc8lUCg_X38cb-52" value="all users" style="rounded=0;whiteSpace=wrap;html=1;fillColor=#f8cecc;strokeColor=#b85450;" vertex="1" parent="1">
          <mxGeometry x="1360" y="191.25" width="120" height="30" as="geometry" />
        </mxCell>
        <mxCell id="wViVZvwEc8lUCg_X38cb-53" value="&lt;i&gt;info&lt;/i&gt;" style="rounded=0;whiteSpace=wrap;html=1;dashed=1;fillColor=#dae8fc;strokeColor=#6c8ebf;" vertex="1" parent="1">
          <mxGeometry x="1360" y="221.25" width="120" height="30" as="geometry" />
        </mxCell>
        <mxCell id="wViVZvwEc8lUCg_X38cb-68" style="edgeStyle=orthogonalEdgeStyle;rounded=0;orthogonalLoop=1;jettySize=auto;html=1;exitX=1;exitY=0.5;exitDx=0;exitDy=0;entryX=0;entryY=0.5;entryDx=0;entryDy=0;" edge="1" parent="1" source="wViVZvwEc8lUCg_X38cb-54" target="wViVZvwEc8lUCg_X38cb-64">
          <mxGeometry relative="1" as="geometry" />
        </mxCell>
        <mxCell id="wViVZvwEc8lUCg_X38cb-54" value="&lt;i&gt;users list&lt;/i&gt;" style="rounded=0;whiteSpace=wrap;html=1;dashed=1;fillColor=#d5e8d4;strokeColor=#82b366;" vertex="1" parent="1">
          <mxGeometry x="1360" y="251.25" width="120" height="30" as="geometry" />
        </mxCell>
        <mxCell id="wViVZvwEc8lUCg_X38cb-57" value="request info" style="rounded=0;whiteSpace=wrap;html=1;fillColor=#f8cecc;strokeColor=#b85450;" vertex="1" parent="1">
          <mxGeometry x="1520" y="51.25" width="120" height="30" as="geometry" />
        </mxCell>
        <mxCell id="wViVZvwEc8lUCg_X38cb-58" value="&lt;i&gt;info&lt;/i&gt;" style="rounded=0;whiteSpace=wrap;html=1;dashed=1;fillColor=#dae8fc;strokeColor=#6c8ebf;" vertex="1" parent="1">
          <mxGeometry x="1520" y="81.25" width="120" height="30" as="geometry" />
        </mxCell>
        <mxCell id="wViVZvwEc8lUCg_X38cb-90" style="edgeStyle=orthogonalEdgeStyle;rounded=0;orthogonalLoop=1;jettySize=auto;html=1;exitX=1;exitY=0.5;exitDx=0;exitDy=0;entryX=0;entryY=0.5;entryDx=0;entryDy=0;" edge="1" parent="1" source="wViVZvwEc8lUCg_X38cb-61" target="wViVZvwEc8lUCg_X38cb-88">
          <mxGeometry relative="1" as="geometry" />
        </mxCell>
        <mxCell id="wViVZvwEc8lUCg_X38cb-61" value="&lt;i&gt;approve&lt;/i&gt;" style="rounded=0;whiteSpace=wrap;html=1;dashed=1;fillColor=#d5e8d4;strokeColor=#82b366;" vertex="1" parent="1">
          <mxGeometry x="1520" y="111.25" width="120" height="30" as="geometry" />
        </mxCell>
        <mxCell id="wViVZvwEc8lUCg_X38cb-92" style="edgeStyle=orthogonalEdgeStyle;rounded=0;orthogonalLoop=1;jettySize=auto;html=1;exitX=1;exitY=0.5;exitDx=0;exitDy=0;entryX=0;entryY=0.5;entryDx=0;entryDy=0;" edge="1" parent="1" source="wViVZvwEc8lUCg_X38cb-62" target="wViVZvwEc8lUCg_X38cb-91">
          <mxGeometry relative="1" as="geometry" />
        </mxCell>
        <mxCell id="wViVZvwEc8lUCg_X38cb-62" value="&lt;i&gt;reject&lt;/i&gt;" style="rounded=0;whiteSpace=wrap;html=1;dashed=1;fillColor=#d5e8d4;strokeColor=#82b366;" vertex="1" parent="1">
          <mxGeometry x="1520" y="141.25" width="120" height="30" as="geometry" />
        </mxCell>
        <mxCell id="wViVZvwEc8lUCg_X38cb-64" value="user info" style="rounded=0;whiteSpace=wrap;html=1;fillColor=#f8cecc;strokeColor=#b85450;" vertex="1" parent="1">
          <mxGeometry x="1520" y="191.25" width="120" height="30" as="geometry" />
        </mxCell>
        <mxCell id="wViVZvwEc8lUCg_X38cb-65" value="&lt;i&gt;info&lt;/i&gt;" style="rounded=0;whiteSpace=wrap;html=1;dashed=1;fillColor=#dae8fc;strokeColor=#6c8ebf;" vertex="1" parent="1">
          <mxGeometry x="1520" y="221.25" width="120" height="30" as="geometry" />
        </mxCell>
        <mxCell id="wViVZvwEc8lUCg_X38cb-95" style="edgeStyle=orthogonalEdgeStyle;rounded=0;orthogonalLoop=1;jettySize=auto;html=1;exitX=1;exitY=0.5;exitDx=0;exitDy=0;entryX=0;entryY=0.5;entryDx=0;entryDy=0;" edge="1" parent="1" source="wViVZvwEc8lUCg_X38cb-69" target="wViVZvwEc8lUCg_X38cb-93">
          <mxGeometry relative="1" as="geometry" />
        </mxCell>
        <mxCell id="wViVZvwEc8lUCg_X38cb-69" value="&lt;i&gt;block/unblock&lt;/i&gt;" style="rounded=0;whiteSpace=wrap;html=1;dashed=1;fillColor=#d5e8d4;strokeColor=#82b366;" vertex="1" parent="1">
          <mxGeometry x="1520" y="251.25" width="120" height="30" as="geometry" />
        </mxCell>
        <mxCell id="wViVZvwEc8lUCg_X38cb-96" style="edgeStyle=orthogonalEdgeStyle;rounded=0;orthogonalLoop=1;jettySize=auto;html=1;exitX=1;exitY=0.5;exitDx=0;exitDy=0;entryX=0;entryY=0.5;entryDx=0;entryDy=0;" edge="1" parent="1" source="wViVZvwEc8lUCg_X38cb-71" target="wViVZvwEc8lUCg_X38cb-94">
          <mxGeometry relative="1" as="geometry" />
        </mxCell>
        <mxCell id="wViVZvwEc8lUCg_X38cb-71" value="&lt;i&gt;make/remove&lt;/i&gt;&lt;div&gt;&lt;i&gt;admin&lt;/i&gt;&lt;/div&gt;" style="rounded=0;whiteSpace=wrap;html=1;dashed=1;fillColor=#d5e8d4;strokeColor=#82b366;" vertex="1" parent="1">
          <mxGeometry x="1520" y="281.25" width="120" height="30" as="geometry" />
        </mxCell>
        <mxCell id="wViVZvwEc8lUCg_X38cb-79" value="subscriptions" style="rounded=0;whiteSpace=wrap;html=1;fillColor=#f8cecc;strokeColor=#b85450;" vertex="1" parent="1">
          <mxGeometry x="1360" y="480" width="120" height="30" as="geometry" />
        </mxCell>
        <mxCell id="wViVZvwEc8lUCg_X38cb-100" style="edgeStyle=orthogonalEdgeStyle;rounded=0;orthogonalLoop=1;jettySize=auto;html=1;exitX=1;exitY=0.5;exitDx=0;exitDy=0;entryX=0;entryY=0.5;entryDx=0;entryDy=0;" edge="1" parent="1" source="wViVZvwEc8lUCg_X38cb-80" target="wViVZvwEc8lUCg_X38cb-99">
          <mxGeometry relative="1" as="geometry" />
        </mxCell>
        <mxCell id="wViVZvwEc8lUCg_X38cb-80" value="&lt;i&gt;add&lt;/i&gt;" style="rounded=0;whiteSpace=wrap;html=1;dashed=1;fillColor=#fff2cc;strokeColor=#d6b656;" vertex="1" parent="1">
          <mxGeometry x="1360" y="510" width="120" height="30" as="geometry" />
        </mxCell>
        <mxCell id="wViVZvwEc8lUCg_X38cb-105" style="edgeStyle=orthogonalEdgeStyle;rounded=0;orthogonalLoop=1;jettySize=auto;html=1;exitX=1;exitY=0.5;exitDx=0;exitDy=0;entryX=0;entryY=0.5;entryDx=0;entryDy=0;" edge="1" parent="1" source="wViVZvwEc8lUCg_X38cb-81" target="wViVZvwEc8lUCg_X38cb-102">
          <mxGeometry relative="1" as="geometry" />
        </mxCell>
        <mxCell id="wViVZvwEc8lUCg_X38cb-81" value="&lt;i&gt;remove&lt;/i&gt;" style="rounded=0;whiteSpace=wrap;html=1;dashed=1;fillColor=#fff2cc;strokeColor=#d6b656;" vertex="1" parent="1">
          <mxGeometry x="1360" y="540" width="120" height="30" as="geometry" />
        </mxCell>
        <mxCell id="wViVZvwEc8lUCg_X38cb-111" style="edgeStyle=orthogonalEdgeStyle;rounded=0;orthogonalLoop=1;jettySize=auto;html=1;exitX=1;exitY=0.5;exitDx=0;exitDy=0;entryX=0;entryY=0.5;entryDx=0;entryDy=0;" edge="1" parent="1" source="wViVZvwEc8lUCg_X38cb-83" target="wViVZvwEc8lUCg_X38cb-106">
          <mxGeometry relative="1" as="geometry" />
        </mxCell>
        <mxCell id="wViVZvwEc8lUCg_X38cb-82" value="publications" style="rounded=0;whiteSpace=wrap;html=1;fillColor=#f8cecc;strokeColor=#b85450;" vertex="1" parent="1">
          <mxGeometry x="1360" y="668.75" width="120" height="30" as="geometry" />
        </mxCell>
        <mxCell id="wViVZvwEc8lUCg_X38cb-83" value="&lt;i&gt;add&lt;/i&gt;" style="rounded=0;whiteSpace=wrap;html=1;dashed=1;fillColor=#fff2cc;strokeColor=#d6b656;" vertex="1" parent="1">
          <mxGeometry x="1360" y="698.75" width="120" height="30" as="geometry" />
        </mxCell>
        <mxCell id="wViVZvwEc8lUCg_X38cb-112" style="edgeStyle=orthogonalEdgeStyle;rounded=0;orthogonalLoop=1;jettySize=auto;html=1;exitX=1;exitY=0.5;exitDx=0;exitDy=0;entryX=0;entryY=0.5;entryDx=0;entryDy=0;" edge="1" parent="1" source="wViVZvwEc8lUCg_X38cb-84" target="wViVZvwEc8lUCg_X38cb-108">
          <mxGeometry relative="1" as="geometry" />
        </mxCell>
        <mxCell id="wViVZvwEc8lUCg_X38cb-84" value="&lt;i&gt;remove&lt;/i&gt;" style="rounded=0;whiteSpace=wrap;html=1;dashed=1;fillColor=#fff2cc;strokeColor=#d6b656;" vertex="1" parent="1">
          <mxGeometry x="1360" y="728.75" width="120" height="30" as="geometry" />
        </mxCell>
        <mxCell id="wViVZvwEc8lUCg_X38cb-124" style="edgeStyle=orthogonalEdgeStyle;rounded=0;orthogonalLoop=1;jettySize=auto;html=1;exitX=0.5;exitY=0;exitDx=0;exitDy=0;entryX=0.5;entryY=0;entryDx=0;entryDy=0;dashed=1;" edge="1" parent="1" source="wViVZvwEc8lUCg_X38cb-88" target="wViVZvwEc8lUCg_X38cb-10">
          <mxGeometry relative="1" as="geometry">
            <Array as="points">
              <mxPoint x="1740" y="41.25" />
              <mxPoint x="1260" y="41.25" />
            </Array>
          </mxGeometry>
        </mxCell>
        <mxCell id="wViVZvwEc8lUCg_X38cb-88" value="approves request" style="shape=parallelogram;perimeter=parallelogramPerimeter;whiteSpace=wrap;html=1;fixedSize=1;" vertex="1" parent="1">
          <mxGeometry x="1680" y="116.88" width="120" height="18.75" as="geometry" />
        </mxCell>
        <mxCell id="wViVZvwEc8lUCg_X38cb-125" style="edgeStyle=orthogonalEdgeStyle;rounded=0;orthogonalLoop=1;jettySize=auto;html=1;exitX=1;exitY=0.5;exitDx=0;exitDy=0;dashed=1;" edge="1" parent="1" source="wViVZvwEc8lUCg_X38cb-91">
          <mxGeometry relative="1" as="geometry">
            <mxPoint x="1740" y="41.25" as="targetPoint" />
            <Array as="points">
              <mxPoint x="1810" y="156.25" />
              <mxPoint x="1810" y="41.25" />
            </Array>
          </mxGeometry>
        </mxCell>
        <mxCell id="wViVZvwEc8lUCg_X38cb-91" value="rejects request" style="shape=parallelogram;perimeter=parallelogramPerimeter;whiteSpace=wrap;html=1;fixedSize=1;" vertex="1" parent="1">
          <mxGeometry x="1680" y="146.88" width="120" height="18.75" as="geometry" />
        </mxCell>
        <mxCell id="wViVZvwEc8lUCg_X38cb-93" value="toogles block" style="shape=parallelogram;perimeter=parallelogramPerimeter;whiteSpace=wrap;html=1;fixedSize=1;" vertex="1" parent="1">
          <mxGeometry x="1680" y="256.88" width="120" height="18.75" as="geometry" />
        </mxCell>
        <mxCell id="wViVZvwEc8lUCg_X38cb-94" value="toogles admin" style="shape=parallelogram;perimeter=parallelogramPerimeter;whiteSpace=wrap;html=1;fixedSize=1;" vertex="1" parent="1">
          <mxGeometry x="1680" y="286.88" width="120" height="18.75" as="geometry" />
        </mxCell>
        <mxCell id="wViVZvwEc8lUCg_X38cb-99" value="add subcription" style="rounded=0;whiteSpace=wrap;html=1;fillColor=#f8cecc;strokeColor=#b85450;" vertex="1" parent="1">
          <mxGeometry x="1520" y="461.25" width="120" height="30" as="geometry" />
        </mxCell>
        <mxCell id="wViVZvwEc8lUCg_X38cb-121" style="edgeStyle=orthogonalEdgeStyle;rounded=0;orthogonalLoop=1;jettySize=auto;html=1;exitX=1;exitY=0;exitDx=0;exitDy=0;entryX=0;entryY=0.5;entryDx=0;entryDy=0;" edge="1" parent="1" source="wViVZvwEc8lUCg_X38cb-101" target="wViVZvwEc8lUCg_X38cb-117">
          <mxGeometry relative="1" as="geometry">
            <Array as="points">
              <mxPoint x="1640" y="490" />
              <mxPoint x="1660" y="490" />
            </Array>
          </mxGeometry>
        </mxCell>
        <mxCell id="wViVZvwEc8lUCg_X38cb-101" value="&lt;i&gt;command info&lt;/i&gt;" style="rounded=0;whiteSpace=wrap;html=1;dashed=1;fillColor=#dae8fc;strokeColor=#6c8ebf;" vertex="1" parent="1">
          <mxGeometry x="1520" y="491.25" width="120" height="30" as="geometry" />
        </mxCell>
        <mxCell id="wViVZvwEc8lUCg_X38cb-102" value="remove subscription" style="rounded=0;whiteSpace=wrap;html=1;fillColor=#f8cecc;strokeColor=#b85450;" vertex="1" parent="1">
          <mxGeometry x="1520" y="540" width="120" height="30" as="geometry" />
        </mxCell>
        <mxCell id="wViVZvwEc8lUCg_X38cb-114" style="edgeStyle=orthogonalEdgeStyle;rounded=0;orthogonalLoop=1;jettySize=auto;html=1;exitX=1;exitY=0.5;exitDx=0;exitDy=0;entryX=0;entryY=0.5;entryDx=0;entryDy=0;" edge="1" parent="1" source="wViVZvwEc8lUCg_X38cb-103" target="wViVZvwEc8lUCg_X38cb-113">
          <mxGeometry relative="1" as="geometry" />
        </mxCell>
        <mxCell id="wViVZvwEc8lUCg_X38cb-103" value="&lt;i&gt;subscriptions list&lt;/i&gt;" style="rounded=0;whiteSpace=wrap;html=1;dashed=1;fillColor=#d5e8d4;strokeColor=#82b366;" vertex="1" parent="1">
          <mxGeometry x="1520" y="600" width="120" height="30" as="geometry" />
        </mxCell>
        <mxCell id="wViVZvwEc8lUCg_X38cb-104" value="&lt;i&gt;info&lt;/i&gt;" style="rounded=0;whiteSpace=wrap;html=1;dashed=1;fillColor=#dae8fc;strokeColor=#6c8ebf;" vertex="1" parent="1">
          <mxGeometry x="1520" y="570" width="120" height="30" as="geometry" />
        </mxCell>
        <mxCell id="wViVZvwEc8lUCg_X38cb-106" value="add publication" style="rounded=0;whiteSpace=wrap;html=1;fillColor=#f8cecc;strokeColor=#b85450;" vertex="1" parent="1">
          <mxGeometry x="1520" y="650" width="120" height="30" as="geometry" />
        </mxCell>
        <mxCell id="wViVZvwEc8lUCg_X38cb-107" value="&lt;i&gt;command info&lt;/i&gt;" style="rounded=0;whiteSpace=wrap;html=1;dashed=1;fillColor=#dae8fc;strokeColor=#6c8ebf;" vertex="1" parent="1">
          <mxGeometry x="1520" y="680" width="120" height="30" as="geometry" />
        </mxCell>
        <mxCell id="wViVZvwEc8lUCg_X38cb-108" value="remove publication" style="rounded=0;whiteSpace=wrap;html=1;fillColor=#f8cecc;strokeColor=#b85450;" vertex="1" parent="1">
          <mxGeometry x="1520" y="728.75" width="120" height="30" as="geometry" />
        </mxCell>
        <mxCell id="wViVZvwEc8lUCg_X38cb-116" style="edgeStyle=orthogonalEdgeStyle;rounded=0;orthogonalLoop=1;jettySize=auto;html=1;exitX=1;exitY=0.5;exitDx=0;exitDy=0;entryX=0;entryY=0.5;entryDx=0;entryDy=0;" edge="1" parent="1" source="wViVZvwEc8lUCg_X38cb-109" target="wViVZvwEc8lUCg_X38cb-115">
          <mxGeometry relative="1" as="geometry" />
        </mxCell>
        <mxCell id="wViVZvwEc8lUCg_X38cb-109" value="publications&amp;nbsp;&lt;i&gt;list&lt;/i&gt;" style="rounded=0;whiteSpace=wrap;html=1;dashed=1;fillColor=#d5e8d4;strokeColor=#82b366;" vertex="1" parent="1">
          <mxGeometry x="1520" y="788.75" width="120" height="30" as="geometry" />
        </mxCell>
        <mxCell id="wViVZvwEc8lUCg_X38cb-110" value="&lt;i&gt;info&lt;/i&gt;" style="rounded=0;whiteSpace=wrap;html=1;dashed=1;fillColor=#dae8fc;strokeColor=#6c8ebf;" vertex="1" parent="1">
          <mxGeometry x="1520" y="758.75" width="120" height="30" as="geometry" />
        </mxCell>
        <mxCell id="n4fZgNPsGK7MTX6WhNSD-7" style="edgeStyle=orthogonalEdgeStyle;rounded=0;orthogonalLoop=1;jettySize=auto;html=1;exitX=1;exitY=0.5;exitDx=0;exitDy=0;entryX=0.5;entryY=0;entryDx=0;entryDy=0;dashed=1;" edge="1" parent="1" source="wViVZvwEc8lUCg_X38cb-113" target="wViVZvwEc8lUCg_X38cb-102">
          <mxGeometry relative="1" as="geometry">
            <Array as="points">
              <mxPoint x="1820" y="615" />
              <mxPoint x="1820" y="530" />
              <mxPoint x="1580" y="530" />
            </Array>
          </mxGeometry>
        </mxCell>
        <mxCell id="wViVZvwEc8lUCg_X38cb-113" value="tap to remove" style="shape=parallelogram;perimeter=parallelogramPerimeter;whiteSpace=wrap;html=1;fixedSize=1;" vertex="1" parent="1">
          <mxGeometry x="1680" y="605.62" width="120" height="18.75" as="geometry" />
        </mxCell>
        <mxCell id="n4fZgNPsGK7MTX6WhNSD-6" style="edgeStyle=orthogonalEdgeStyle;rounded=0;orthogonalLoop=1;jettySize=auto;html=1;exitX=1;exitY=0.75;exitDx=0;exitDy=0;entryX=0.5;entryY=0;entryDx=0;entryDy=0;dashed=1;" edge="1" parent="1" source="wViVZvwEc8lUCg_X38cb-115" target="wViVZvwEc8lUCg_X38cb-108">
          <mxGeometry relative="1" as="geometry">
            <Array as="points">
              <mxPoint x="1820" y="807" />
              <mxPoint x="1820" y="720" />
              <mxPoint x="1580" y="720" />
            </Array>
          </mxGeometry>
        </mxCell>
        <mxCell id="wViVZvwEc8lUCg_X38cb-115" value="tap to remove" style="shape=parallelogram;perimeter=parallelogramPerimeter;whiteSpace=wrap;html=1;fixedSize=1;" vertex="1" parent="1">
          <mxGeometry x="1680" y="794.37" width="120" height="18.75" as="geometry" />
        </mxCell>
        <mxCell id="n4fZgNPsGK7MTX6WhNSD-9" style="edgeStyle=orthogonalEdgeStyle;rounded=0;orthogonalLoop=1;jettySize=auto;html=1;exitX=1;exitY=0.5;exitDx=0;exitDy=0;entryX=0.5;entryY=0;entryDx=0;entryDy=0;dashed=1;" edge="1" parent="1" source="wViVZvwEc8lUCg_X38cb-117" target="wViVZvwEc8lUCg_X38cb-79">
          <mxGeometry relative="1" as="geometry">
            <Array as="points">
              <mxPoint x="1830" y="490" />
              <mxPoint x="1830" y="450" />
              <mxPoint x="1500" y="450" />
              <mxPoint x="1500" y="470" />
              <mxPoint x="1420" y="470" />
            </Array>
          </mxGeometry>
        </mxCell>
        <mxCell id="wViVZvwEc8lUCg_X38cb-117" value="waits command&lt;div&gt;/add-sub &amp;lt;topic&amp;gt; &amp;lt;field&amp;gt;&lt;/div&gt;" style="shape=parallelogram;perimeter=parallelogramPerimeter;whiteSpace=wrap;html=1;fixedSize=1;" vertex="1" parent="1">
          <mxGeometry x="1660" y="470" width="160" height="40" as="geometry" />
        </mxCell>
        <mxCell id="wViVZvwEc8lUCg_X38cb-130" value="" style="endArrow=classic;html=1;rounded=0;exitX=1;exitY=0.5;exitDx=0;exitDy=0;edgeStyle=orthogonalEdgeStyle;entryX=0.5;entryY=0;entryDx=0;entryDy=0;dashed=1;" edge="1" parent="1" source="wViVZvwEc8lUCg_X38cb-93" target="wViVZvwEc8lUCg_X38cb-52">
          <mxGeometry width="50" height="50" relative="1" as="geometry">
            <mxPoint x="1690" y="281.25" as="sourcePoint" />
            <mxPoint x="1810" y="151.25" as="targetPoint" />
            <Array as="points">
              <mxPoint x="1810" y="266.25" />
              <mxPoint x="1810" y="181.25" />
              <mxPoint x="1420" y="181.25" />
            </Array>
          </mxGeometry>
        </mxCell>
        <mxCell id="wViVZvwEc8lUCg_X38cb-131" value="" style="endArrow=classic;html=1;rounded=0;exitX=1;exitY=0.5;exitDx=0;exitDy=0;edgeStyle=orthogonalEdgeStyle;dashed=1;" edge="1" parent="1" source="wViVZvwEc8lUCg_X38cb-94">
          <mxGeometry width="50" height="50" relative="1" as="geometry">
            <mxPoint x="1690" y="311.25" as="sourcePoint" />
            <mxPoint x="1810" y="261.25" as="targetPoint" />
          </mxGeometry>
        </mxCell>
        <mxCell id="n4fZgNPsGK7MTX6WhNSD-8" style="edgeStyle=orthogonalEdgeStyle;rounded=0;orthogonalLoop=1;jettySize=auto;html=1;exitX=1;exitY=0.5;exitDx=0;exitDy=0;entryX=0.5;entryY=0;entryDx=0;entryDy=0;dashed=1;" edge="1" parent="1" source="n4fZgNPsGK7MTX6WhNSD-2" target="wViVZvwEc8lUCg_X38cb-82">
          <mxGeometry relative="1" as="geometry">
            <Array as="points">
              <mxPoint x="1840" y="684" />
              <mxPoint x="1840" y="640" />
              <mxPoint x="1420" y="640" />
            </Array>
          </mxGeometry>
        </mxCell>
        <mxCell id="n4fZgNPsGK7MTX6WhNSD-2" value="waits command&lt;div&gt;/add-pub &amp;lt;topic&amp;gt; &amp;lt;payload&amp;gt;&lt;/div&gt;" style="shape=parallelogram;perimeter=parallelogramPerimeter;whiteSpace=wrap;html=1;fixedSize=1;" vertex="1" parent="1">
          <mxGeometry x="1650" y="668.75" width="180" height="30" as="geometry" />
        </mxCell>
        <mxCell id="n4fZgNPsGK7MTX6WhNSD-5" value="" style="endArrow=classic;html=1;rounded=0;exitX=1;exitY=0;exitDx=0;exitDy=0;entryX=0.071;entryY=0.367;entryDx=0;entryDy=0;entryPerimeter=0;" edge="1" parent="1" source="wViVZvwEc8lUCg_X38cb-107" target="n4fZgNPsGK7MTX6WhNSD-2">
          <mxGeometry width="50" height="50" relative="1" as="geometry">
            <mxPoint x="1660" y="680" as="sourcePoint" />
            <mxPoint x="1670" y="680" as="targetPoint" />
          </mxGeometry>
        </mxCell>
      </root>
    </mxGraphModel>
  </diagram>
  <diagram id="vtRmpJEsgis82bQ2vcrT" name="Sequences">
    <mxGraphModel dx="1866" dy="1274" grid="1" gridSize="10" guides="1" tooltips="1" connect="1" arrows="1" fold="1" page="1" pageScale="1" pageWidth="850" pageHeight="1100" math="0" shadow="0">
      <root>
        <mxCell id="0" />
        <mxCell id="1" parent="0" />
        <mxCell id="_XCsiW9X_WVAQRF1NOCf-1" value="User" style="shape=umlLifeline;perimeter=lifelinePerimeter;whiteSpace=wrap;container=1;dropTarget=0;collapsible=0;recursiveResize=0;outlineConnect=0;portConstraint=eastwest;newEdgeStyle={&quot;edgeStyle&quot;:&quot;elbowEdgeStyle&quot;,&quot;elbow&quot;:&quot;vertical&quot;,&quot;curved&quot;:0,&quot;rounded&quot;:0};participant=umlActor;verticalAlign=bottom;labelPosition=center;verticalLabelPosition=top;align=center;size=65;fontSize=16;strokeWidth=2;" parent="1" vertex="1">
          <mxGeometry x="60" y="110" width="35" height="810" as="geometry" />
        </mxCell>
        <mxCell id="_XCsiW9X_WVAQRF1NOCf-2" value="Telegram Bot" style="shape=umlLifeline;perimeter=lifelinePerimeter;whiteSpace=wrap;container=1;dropTarget=0;collapsible=0;recursiveResize=0;outlineConnect=0;portConstraint=eastwest;newEdgeStyle={&quot;edgeStyle&quot;:&quot;elbowEdgeStyle&quot;,&quot;elbow&quot;:&quot;vertical&quot;,&quot;curved&quot;:0,&quot;rounded&quot;:0};size=65;fontSize=16;strokeWidth=2;" parent="1" vertex="1">
          <mxGeometry x="288" y="110" width="150" height="810" as="geometry" />
        </mxCell>
        <mxCell id="_XCsiW9X_WVAQRF1NOCf-3" value="Database" style="shape=umlLifeline;perimeter=lifelinePerimeter;whiteSpace=wrap;container=1;dropTarget=0;collapsible=0;recursiveResize=0;outlineConnect=0;portConstraint=eastwest;newEdgeStyle={&quot;edgeStyle&quot;:&quot;elbowEdgeStyle&quot;,&quot;elbow&quot;:&quot;vertical&quot;,&quot;curved&quot;:0,&quot;rounded&quot;:0};size=65;fontSize=16;strokeWidth=2;" parent="1" vertex="1">
          <mxGeometry x="539" y="110" width="150" height="810" as="geometry" />
        </mxCell>
        <mxCell id="_XCsiW9X_WVAQRF1NOCf-4" value="Admin" style="shape=umlLifeline;perimeter=lifelinePerimeter;whiteSpace=wrap;container=1;dropTarget=0;collapsible=0;recursiveResize=0;outlineConnect=0;portConstraint=eastwest;newEdgeStyle={&quot;edgeStyle&quot;:&quot;elbowEdgeStyle&quot;,&quot;elbow&quot;:&quot;vertical&quot;,&quot;curved&quot;:0,&quot;rounded&quot;:0};participant=umlActor;verticalAlign=bottom;labelPosition=center;verticalLabelPosition=top;align=center;size=65;fontSize=16;strokeWidth=2;" parent="1" vertex="1">
          <mxGeometry x="739" y="110" width="35" height="810" as="geometry" />
        </mxCell>
        <mxCell id="_XCsiW9X_WVAQRF1NOCf-5" value="alt" style="shape=umlFrame;dashed=1;pointerEvents=0;dropTarget=0;strokeColor=#338037;height=20;width=30;fontSize=16;fillColor=#338037;strokeWidth=2;labelBackgroundColor=#338037;fontColor=#FFFFFF;swimlaneFillColor=#338037;opacity=20;" parent="1" vertex="1">
          <mxGeometry x="60" y="589" width="720" height="300" as="geometry" />
        </mxCell>
        <mxCell id="_XCsiW9X_WVAQRF1NOCf-6" value="[Admin approves]" style="text;strokeColor=none;fillColor=none;align=center;verticalAlign=middle;whiteSpace=wrap;fontSize=16;labelBackgroundColor=#338037;fontColor=#FFFFFF;strokeWidth=2;" parent="_XCsiW9X_WVAQRF1NOCf-5" vertex="1">
          <mxGeometry x="30.81312410841655" width="689.1868758915836" height="20" as="geometry" />
        </mxCell>
        <mxCell id="_XCsiW9X_WVAQRF1NOCf-7" value="[Admin declines]" style="shape=line;dashed=1;whiteSpace=wrap;verticalAlign=top;labelPosition=center;verticalLabelPosition=middle;align=center;strokeColor=#338037;fontSize=16;spacingLeft=16;fillColor=#338037;strokeWidth=2;labelBackgroundColor=#338037;fontColor=#FFFFFF;" parent="_XCsiW9X_WVAQRF1NOCf-5" vertex="1">
          <mxGeometry y="155" width="720" height="4" as="geometry" />
        </mxCell>
        <mxCell id="_XCsiW9X_WVAQRF1NOCf-8" value="alt" style="shape=umlFrame;dashed=1;pointerEvents=0;dropTarget=0;strokeColor=light-dark(#FEA726,#1F1F00);height=20;width=30;fontSize=14;fillColor=#FEA726;strokeWidth=2;swimlaneFillColor=#FEA726;gradientColor=none;opacity=20;" parent="1" vertex="1">
          <mxGeometry x="40" y="289" width="760" height="610" as="geometry" />
        </mxCell>
        <mxCell id="_XCsiW9X_WVAQRF1NOCf-9" value="[User is registered]" style="text;strokeColor=none;fillColor=none;align=center;verticalAlign=middle;fontSize=16;fontColor=#000000;labelBackgroundColor=#FEA726;strokeWidth=2;" parent="_XCsiW9X_WVAQRF1NOCf-8" vertex="1">
          <mxGeometry x="31.622746185852982" width="728.377253814147" height="20" as="geometry" />
        </mxCell>
        <mxCell id="_XCsiW9X_WVAQRF1NOCf-10" value="[User not registered]" style="shape=line;dashed=1;whiteSpace=wrap;verticalAlign=top;labelPosition=center;verticalLabelPosition=middle;align=center;strokeColor=#FEA726;fontSize=16;fontColor=#000000;strokeWidth=2;labelBackgroundColor=#FEA726;spacingLeft=42;" parent="_XCsiW9X_WVAQRF1NOCf-8" vertex="1">
          <mxGeometry y="155" width="760.0000000000002" height="4" as="geometry" />
        </mxCell>
        <mxCell id="_XCsiW9X_WVAQRF1NOCf-11" value="Write message" style="verticalAlign=bottom;edgeStyle=elbowEdgeStyle;elbow=vertical;curved=0;rounded=0;endArrow=block;fontSize=16;strokeWidth=2;labelBackgroundColor=none;" parent="1" source="_XCsiW9X_WVAQRF1NOCf-1" target="_XCsiW9X_WVAQRF1NOCf-2" edge="1">
          <mxGeometry relative="1" as="geometry">
            <Array as="points">
              <mxPoint x="258" y="217" />
            </Array>
          </mxGeometry>
        </mxCell>
        <mxCell id="_XCsiW9X_WVAQRF1NOCf-12" value="Check if user is registered" style="verticalAlign=bottom;edgeStyle=elbowEdgeStyle;elbow=vertical;curved=0;rounded=0;endArrow=block;fontSize=16;strokeWidth=2;labelBackgroundColor=none;" parent="1" source="_XCsiW9X_WVAQRF1NOCf-2" target="_XCsiW9X_WVAQRF1NOCf-3" edge="1">
          <mxGeometry relative="1" as="geometry">
            <Array as="points">
              <mxPoint x="497" y="269" />
            </Array>
          </mxGeometry>
        </mxCell>
        <mxCell id="_XCsiW9X_WVAQRF1NOCf-13" value="User is registered" style="verticalAlign=bottom;edgeStyle=elbowEdgeStyle;elbow=vertical;curved=0;rounded=0;dashed=1;dashPattern=2 3;endArrow=block;fontSize=16;strokeWidth=2;labelBackgroundColor=none;" parent="1" source="_XCsiW9X_WVAQRF1NOCf-3" target="_XCsiW9X_WVAQRF1NOCf-2" edge="1">
          <mxGeometry relative="1" as="geometry">
            <Array as="points">
              <mxPoint x="500" y="367" />
            </Array>
          </mxGeometry>
        </mxCell>
        <mxCell id="_XCsiW9X_WVAQRF1NOCf-14" value="Access" style="verticalAlign=bottom;edgeStyle=elbowEdgeStyle;elbow=vertical;curved=0;rounded=0;dashed=1;dashPattern=2 3;endArrow=block;fontSize=16;strokeWidth=2;labelBackgroundColor=none;" parent="1" source="_XCsiW9X_WVAQRF1NOCf-2" target="_XCsiW9X_WVAQRF1NOCf-1" edge="1">
          <mxGeometry relative="1" as="geometry">
            <Array as="points">
              <mxPoint x="261" y="419" />
            </Array>
          </mxGeometry>
        </mxCell>
        <mxCell id="_XCsiW9X_WVAQRF1NOCf-15" value="User not found" style="verticalAlign=bottom;edgeStyle=elbowEdgeStyle;elbow=vertical;curved=0;rounded=0;dashed=1;dashPattern=2 3;endArrow=block;fontSize=16;strokeWidth=2;labelBackgroundColor=none;" parent="1" source="_XCsiW9X_WVAQRF1NOCf-3" target="_XCsiW9X_WVAQRF1NOCf-2" edge="1">
          <mxGeometry relative="1" as="geometry">
            <Array as="points">
              <mxPoint x="500" y="517" />
            </Array>
          </mxGeometry>
        </mxCell>
        <mxCell id="_XCsiW9X_WVAQRF1NOCf-16" value="Send join request" style="verticalAlign=bottom;edgeStyle=elbowEdgeStyle;elbow=vertical;curved=0;rounded=0;endArrow=block;fontSize=16;strokeWidth=2;labelBackgroundColor=none;spacingRight=25;" parent="1" source="_XCsiW9X_WVAQRF1NOCf-2" target="_XCsiW9X_WVAQRF1NOCf-4" edge="1">
          <mxGeometry relative="1" as="geometry">
            <Array as="points">
              <mxPoint x="597" y="569" />
            </Array>
          </mxGeometry>
        </mxCell>
        <mxCell id="_XCsiW9X_WVAQRF1NOCf-17" value="Approve request" style="verticalAlign=bottom;edgeStyle=elbowEdgeStyle;elbow=vertical;curved=0;rounded=0;dashed=1;dashPattern=2 3;endArrow=block;fontSize=16;strokeWidth=2;labelBackgroundColor=none;spacingRight=31;" parent="1" source="_XCsiW9X_WVAQRF1NOCf-4" target="_XCsiW9X_WVAQRF1NOCf-2" edge="1">
          <mxGeometry relative="1" as="geometry">
            <Array as="points">
              <mxPoint x="600" y="667" />
            </Array>
          </mxGeometry>
        </mxCell>
        <mxCell id="_XCsiW9X_WVAQRF1NOCf-18" value="Join request approved" style="verticalAlign=bottom;edgeStyle=elbowEdgeStyle;elbow=vertical;curved=0;rounded=0;dashed=1;dashPattern=2 3;endArrow=block;fontSize=16;strokeWidth=2;labelBackgroundColor=none;" parent="1" source="_XCsiW9X_WVAQRF1NOCf-2" target="_XCsiW9X_WVAQRF1NOCf-1" edge="1">
          <mxGeometry relative="1" as="geometry">
            <Array as="points">
              <mxPoint x="261" y="719" />
            </Array>
          </mxGeometry>
        </mxCell>
        <mxCell id="_XCsiW9X_WVAQRF1NOCf-19" value="Decline request" style="verticalAlign=bottom;edgeStyle=elbowEdgeStyle;elbow=vertical;curved=0;rounded=0;dashed=1;dashPattern=2 3;endArrow=block;fontSize=16;strokeWidth=2;labelBackgroundColor=none;spacingRight=31;" parent="1" source="_XCsiW9X_WVAQRF1NOCf-4" target="_XCsiW9X_WVAQRF1NOCf-2" edge="1">
          <mxGeometry relative="1" as="geometry">
            <Array as="points">
              <mxPoint x="600" y="817" />
            </Array>
          </mxGeometry>
        </mxCell>
        <mxCell id="_XCsiW9X_WVAQRF1NOCf-20" value="Join request declined" style="verticalAlign=bottom;edgeStyle=elbowEdgeStyle;elbow=vertical;curved=0;rounded=0;dashed=1;dashPattern=2 3;endArrow=block;fontSize=16;strokeWidth=2;labelBackgroundColor=none;" parent="1" source="_XCsiW9X_WVAQRF1NOCf-2" target="_XCsiW9X_WVAQRF1NOCf-1" edge="1">
          <mxGeometry relative="1" as="geometry">
            <Array as="points">
              <mxPoint x="261" y="869" />
            </Array>
          </mxGeometry>
        </mxCell>
        <mxCell id="SV0v3ncZpzU-HOTT4GXA-1" value="&lt;b&gt;&lt;font style=&quot;font-size: 33px;&quot;&gt;User registartion&lt;/font&gt;&lt;/b&gt;" style="text;html=1;align=center;verticalAlign=middle;resizable=0;points=[];autosize=1;strokeColor=none;fillColor=none;" parent="1" vertex="1">
          <mxGeometry x="280" y="10" width="290" height="50" as="geometry" />
        </mxCell>
        <mxCell id="SV0v3ncZpzU-HOTT4GXA-2" value="&lt;b&gt;&lt;font style=&quot;font-size: 33px;&quot;&gt;Device registartion&lt;/font&gt;&lt;/b&gt;" style="text;html=1;align=center;verticalAlign=middle;resizable=0;points=[];autosize=1;strokeColor=none;fillColor=none;" parent="1" vertex="1">
          <mxGeometry x="1115" y="10" width="320" height="50" as="geometry" />
        </mxCell>
        <mxCell id="SV0v3ncZpzU-HOTT4GXA-39" value="Device" style="shape=umlLifeline;perimeter=lifelinePerimeter;whiteSpace=wrap;container=1;dropTarget=0;collapsible=0;recursiveResize=0;outlineConnect=0;portConstraint=eastwest;newEdgeStyle={&quot;edgeStyle&quot;:&quot;elbowEdgeStyle&quot;,&quot;elbow&quot;:&quot;vertical&quot;,&quot;curved&quot;:0,&quot;rounded&quot;:0};size=65;strokeWidth=2;fontSize=14;fontStyle=0" parent="1" vertex="1">
          <mxGeometry x="872" y="110" width="150" height="920" as="geometry" />
        </mxCell>
        <mxCell id="SV0v3ncZpzU-HOTT4GXA-40" value="Phone" style="shape=umlLifeline;perimeter=lifelinePerimeter;whiteSpace=wrap;container=1;dropTarget=0;collapsible=0;recursiveResize=0;outlineConnect=0;portConstraint=eastwest;newEdgeStyle={&quot;edgeStyle&quot;:&quot;elbowEdgeStyle&quot;,&quot;elbow&quot;:&quot;vertical&quot;,&quot;curved&quot;:0,&quot;rounded&quot;:0};size=65;strokeWidth=2;fontSize=14;fontStyle=0" parent="1" vertex="1">
          <mxGeometry x="1110" y="110" width="150" height="920" as="geometry" />
        </mxCell>
        <mxCell id="SV0v3ncZpzU-HOTT4GXA-41" value="Telegram Bot" style="shape=umlLifeline;perimeter=lifelinePerimeter;whiteSpace=wrap;container=1;dropTarget=0;collapsible=0;recursiveResize=0;outlineConnect=0;portConstraint=eastwest;newEdgeStyle={&quot;edgeStyle&quot;:&quot;elbowEdgeStyle&quot;,&quot;elbow&quot;:&quot;vertical&quot;,&quot;curved&quot;:0,&quot;rounded&quot;:0};size=65;strokeWidth=2;fontSize=14;fontStyle=0" parent="1" vertex="1">
          <mxGeometry x="1330" y="110" width="150" height="920" as="geometry" />
        </mxCell>
        <mxCell id="SV0v3ncZpzU-HOTT4GXA-42" value="MQTT Broker" style="shape=umlLifeline;perimeter=lifelinePerimeter;whiteSpace=wrap;container=1;dropTarget=0;collapsible=0;recursiveResize=0;outlineConnect=0;portConstraint=eastwest;newEdgeStyle={&quot;edgeStyle&quot;:&quot;elbowEdgeStyle&quot;,&quot;elbow&quot;:&quot;vertical&quot;,&quot;curved&quot;:0,&quot;rounded&quot;:0};size=65;strokeWidth=2;fontSize=14;fontStyle=0" parent="1" vertex="1">
          <mxGeometry x="1530" y="110" width="150" height="920" as="geometry" />
        </mxCell>
        <mxCell id="SV0v3ncZpzU-HOTT4GXA-63" value="" style="group" parent="1" vertex="1" connectable="0">
          <mxGeometry x="860" y="199.9999999999999" width="780" height="797.0000000000001" as="geometry" />
        </mxCell>
        <mxCell id="SV0v3ncZpzU-HOTT4GXA-44" value="alt" style="shape=umlFrame;dashed=1;pointerEvents=0;dropTarget=0;height=15;width=30;strokeWidth=3;fontSize=14;fontStyle=0;fillColor=light-dark(#cd2d2d, #36210a);strokeColor=light-dark(#fb2d2d, #ededed);swimlaneFillColor=#FF8368;opacity=20;" parent="SV0v3ncZpzU-HOTT4GXA-63" vertex="1">
          <mxGeometry y="50" width="780" height="630" as="geometry" />
        </mxCell>
        <mxCell id="SV0v3ncZpzU-HOTT4GXA-45" value="[has stored credentials]" style="text;strokeColor=none;fillColor=none;align=center;verticalAlign=middle;whiteSpace=wrap;strokeWidth=2;fontSize=14;fontStyle=0;labelBackgroundColor=#EE9191;" parent="SV0v3ncZpzU-HOTT4GXA-44" vertex="1">
          <mxGeometry x="45.70625" width="688.59375" height="44.05594405594405" as="geometry" />
        </mxCell>
        <mxCell id="SV0v3ncZpzU-HOTT4GXA-47" value="power on" style="curved=1;endArrow=block;rounded=0;strokeWidth=2;fontSize=14;fontStyle=0" parent="SV0v3ncZpzU-HOTT4GXA-63" edge="1">
          <mxGeometry relative="1" as="geometry">
            <Array as="points">
              <mxPoint x="138" y="1.1368683772161603e-13" />
              <mxPoint x="138" y="30.000000000000114" />
            </Array>
            <mxPoint x="87.28571428571445" as="sourcePoint" />
            <mxPoint x="87.28571428571445" y="30" as="targetPoint" />
          </mxGeometry>
        </mxCell>
        <mxCell id="SV0v3ncZpzU-HOTT4GXA-48" value="load credentials from memory" style="curved=1;endArrow=block;rounded=0;strokeWidth=2;fontSize=14;fontStyle=0;labelBackgroundColor=none;" parent="SV0v3ncZpzU-HOTT4GXA-63" edge="1">
          <mxGeometry x="0.6402" y="-15" relative="1" as="geometry">
            <Array as="points">
              <mxPoint x="138" y="89.00000000000011" />
              <mxPoint x="138" y="119.00000000000011" />
            </Array>
            <mxPoint x="87.28571428571445" y="89.00000000000011" as="sourcePoint" />
            <mxPoint x="87.28571428571445" y="119.00000000000011" as="targetPoint" />
            <mxPoint as="offset" />
          </mxGeometry>
        </mxCell>
        <mxCell id="SV0v3ncZpzU-HOTT4GXA-49" value="start local web server (form page)" style="curved=1;endArrow=block;rounded=0;strokeWidth=2;fontSize=14;fontStyle=0;labelBackgroundColor=none;" parent="SV0v3ncZpzU-HOTT4GXA-63" edge="1">
          <mxGeometry x="0.6402" y="-13" relative="1" as="geometry">
            <Array as="points">
              <mxPoint x="138.13" y="200.0000000000001" />
              <mxPoint x="138.13" y="230.0000000000001" />
            </Array>
            <mxPoint x="86.46333333333303" y="200.0000000000001" as="sourcePoint" />
            <mxPoint x="86.46333333333303" y="230.0000000000001" as="targetPoint" />
            <mxPoint as="offset" />
          </mxGeometry>
        </mxCell>
        <mxCell id="SV0v3ncZpzU-HOTT4GXA-50" value="scan QR (WiFi AP info)" style="verticalAlign=bottom;edgeStyle=elbowEdgeStyle;elbow=vertical;curved=0;rounded=0;endArrow=block;strokeWidth=2;fontSize=14;fontStyle=0;labelBackgroundColor=none;" parent="SV0v3ncZpzU-HOTT4GXA-63" edge="1">
          <mxGeometry relative="1" as="geometry">
            <Array as="points">
              <mxPoint x="218.1300000000001" y="317.0000000000001" />
            </Array>
            <mxPoint x="324.6300000000001" y="317.0000000000001" as="sourcePoint" />
            <mxPoint x="85.96333333333303" y="317.0000000000001" as="targetPoint" />
          </mxGeometry>
        </mxCell>
        <mxCell id="SV0v3ncZpzU-HOTT4GXA-51" value="connect to Device WiFi AP" style="curved=1;endArrow=block;rounded=0;strokeWidth=2;fontSize=14;fontStyle=0;labelBackgroundColor=none;" parent="SV0v3ncZpzU-HOTT4GXA-63" edge="1">
          <mxGeometry x="-0.9082" y="-13" relative="1" as="geometry">
            <Array as="points">
              <mxPoint x="376.1300000000001" y="357.0000000000001" />
              <mxPoint x="376.1300000000001" y="387.0000000000001" />
            </Array>
            <mxPoint x="324.7209090909096" y="357.0000000000001" as="sourcePoint" />
            <mxPoint x="324.7209090909096" y="387.0000000000001" as="targetPoint" />
            <mxPoint as="offset" />
          </mxGeometry>
        </mxCell>
        <mxCell id="SV0v3ncZpzU-HOTT4GXA-52" value="/create_device" style="verticalAlign=bottom;edgeStyle=elbowEdgeStyle;elbow=vertical;curved=0;rounded=0;endArrow=block;strokeWidth=2;fontSize=14;fontStyle=0;labelBackgroundColor=none;" parent="SV0v3ncZpzU-HOTT4GXA-63" edge="1">
          <mxGeometry relative="1" as="geometry">
            <Array as="points">
              <mxPoint x="458.1300000000001" y="437.0000000000001" />
            </Array>
            <mxPoint x="323.96333333333314" y="437.0000000000001" as="sourcePoint" />
            <mxPoint x="544.6299999999997" y="437.0000000000001" as="targetPoint" />
          </mxGeometry>
        </mxCell>
        <mxCell id="SV0v3ncZpzU-HOTT4GXA-53" value="return base64 code" style="verticalAlign=bottom;edgeStyle=elbowEdgeStyle;elbow=horizontal;curved=0;rounded=0;dashed=1;dashPattern=2 3;endArrow=block;strokeWidth=2;fontSize=14;fontStyle=0;labelBackgroundColor=none;" parent="SV0v3ncZpzU-HOTT4GXA-63" edge="1">
          <mxGeometry relative="1" as="geometry">
            <Array as="points">
              <mxPoint x="420.1300000000001" y="477.0000000000001" />
              <mxPoint x="461.1300000000001" y="498.0000000000001" />
            </Array>
            <mxPoint x="544.6300000000001" y="477.0000000000001" as="sourcePoint" />
            <mxPoint x="324.7209090909096" y="477.0000000000001" as="targetPoint" />
          </mxGeometry>
        </mxCell>
        <mxCell id="SV0v3ncZpzU-HOTT4GXA-54" value="scan QR (form URL)" style="verticalAlign=bottom;edgeStyle=elbowEdgeStyle;elbow=vertical;curved=0;rounded=0;endArrow=block;strokeWidth=2;fontSize=14;fontStyle=0;labelBackgroundColor=none;" parent="SV0v3ncZpzU-HOTT4GXA-63" edge="1">
          <mxGeometry relative="1" as="geometry">
            <Array as="points">
              <mxPoint x="218.1300000000001" y="517.0000000000001" />
            </Array>
            <mxPoint x="324.6300000000001" y="517.0000000000001" as="sourcePoint" />
            <mxPoint x="85.96333333333303" y="517.0000000000001" as="targetPoint" />
          </mxGeometry>
        </mxCell>
        <mxCell id="SV0v3ncZpzU-HOTT4GXA-55" value="serve form" style="verticalAlign=bottom;edgeStyle=elbowEdgeStyle;elbow=vertical;curved=0;rounded=0;dashed=1;dashPattern=2 3;endArrow=block;strokeWidth=2;fontSize=14;fontStyle=0;labelBackgroundColor=none;" parent="SV0v3ncZpzU-HOTT4GXA-63" edge="1">
          <mxGeometry relative="1" as="geometry">
            <Array as="points">
              <mxPoint x="215.1300000000001" y="557.0000000000001" />
            </Array>
            <mxPoint x="85.96333333333303" y="557.0000000000001" as="sourcePoint" />
            <mxPoint x="324.6300000000001" y="557.0000000000001" as="targetPoint" />
          </mxGeometry>
        </mxCell>
        <mxCell id="SV0v3ncZpzU-HOTT4GXA-56" value="POST { ssid, pwd, code }" style="verticalAlign=bottom;edgeStyle=elbowEdgeStyle;elbow=vertical;curved=0;rounded=0;endArrow=block;strokeWidth=2;fontSize=14;fontStyle=0;labelBackgroundColor=none;" parent="SV0v3ncZpzU-HOTT4GXA-63" edge="1">
          <mxGeometry relative="1" as="geometry">
            <Array as="points">
              <mxPoint x="218.1300000000001" y="597.0000000000001" />
            </Array>
            <mxPoint x="324.6300000000001" y="597.0000000000001" as="sourcePoint" />
            <mxPoint x="86.720909090909" y="597.0000000000001" as="targetPoint" />
          </mxGeometry>
        </mxCell>
        <mxCell id="SV0v3ncZpzU-HOTT4GXA-57" value="save credentials to memory" style="curved=1;endArrow=block;rounded=0;strokeWidth=2;fontSize=14;fontStyle=0;labelBackgroundColor=none;" parent="SV0v3ncZpzU-HOTT4GXA-63" edge="1">
          <mxGeometry relative="1" as="geometry">
            <Array as="points">
              <mxPoint x="138.13" y="637.0000000000001" />
              <mxPoint x="138.13" y="667.0000000000001" />
            </Array>
            <mxPoint x="86.720909090909" y="637.0000000000001" as="sourcePoint" />
            <mxPoint x="86.720909090909" y="667.0000000000001" as="targetPoint" />
          </mxGeometry>
        </mxCell>
        <mxCell id="SV0v3ncZpzU-HOTT4GXA-58" value="CONNECT (username, passwordHash, clientId)" style="verticalAlign=bottom;edgeStyle=elbowEdgeStyle;elbow=vertical;curved=0;rounded=0;endArrow=block;strokeWidth=2;fontSize=14;fontStyle=0" parent="SV0v3ncZpzU-HOTT4GXA-63" edge="1">
          <mxGeometry relative="1" as="geometry">
            <Array as="points">
              <mxPoint x="438.5400000000002" y="717.0000000000001" />
            </Array>
            <mxPoint x="86.13090909090897" y="717.0000000000001" as="sourcePoint" />
            <mxPoint x="744.0400000000002" y="717.0000000000001" as="targetPoint" />
          </mxGeometry>
        </mxCell>
        <mxCell id="SV0v3ncZpzU-HOTT4GXA-59" value="PUBLISH topic=&quot;ping/{device_id}&quot;" style="verticalAlign=bottom;edgeStyle=elbowEdgeStyle;elbow=vertical;curved=0;rounded=0;endArrow=block;strokeWidth=2;fontSize=14;fontStyle=0" parent="SV0v3ncZpzU-HOTT4GXA-63" edge="1">
          <mxGeometry relative="1" as="geometry">
            <Array as="points">
              <mxPoint x="438.5400000000002" y="757.0000000000001" />
            </Array>
            <mxPoint x="86.13090909090897" y="757.0000000000001" as="sourcePoint" />
            <mxPoint x="744.0400000000002" y="757.0000000000001" as="targetPoint" />
          </mxGeometry>
        </mxCell>
        <mxCell id="SV0v3ncZpzU-HOTT4GXA-60" value="PUBLISH topic=&quot;ping-result/{device_id}&quot; (device info)" style="verticalAlign=bottom;edgeStyle=elbowEdgeStyle;elbow=vertical;curved=0;rounded=0;dashed=1;dashPattern=2 3;endArrow=block;strokeWidth=2;fontSize=14;fontStyle=0" parent="SV0v3ncZpzU-HOTT4GXA-63" edge="1">
          <mxGeometry relative="1" as="geometry">
            <Array as="points">
              <mxPoint x="439.5400000000002" y="797.0000000000001" />
            </Array>
            <mxPoint x="744.0400000000002" y="797.0000000000001" as="sourcePoint" />
            <mxPoint x="86.13090909090897" y="797.0000000000001" as="targetPoint" />
          </mxGeometry>
        </mxCell>
        <mxCell id="SV0v3ncZpzU-HOTT4GXA-46" value="[no credentials]" style="shape=line;dashed=1;whiteSpace=wrap;verticalAlign=top;labelPosition=center;verticalLabelPosition=middle;align=center;strokeColor=#990000;strokeWidth=2;fontSize=14;fontStyle=0;labelBackgroundColor=light-dark(#EE9191,#EDEDED);spacingTop=3;" parent="SV0v3ncZpzU-HOTT4GXA-63" vertex="1">
          <mxGeometry y="149.99839160839161" width="780" height="8.81118881118881" as="geometry" />
        </mxCell>
      </root>
    </mxGraphModel>
  </diagram>
  <diagram id="IZYZD5q2uAPt8iVKFhaF" name="Project Structure">
    <mxGraphModel dx="1213" dy="828" grid="1" gridSize="10" guides="1" tooltips="1" connect="1" arrows="1" fold="1" page="1" pageScale="1" pageWidth="850" pageHeight="1100" math="0" shadow="0">
      <root>
        <mxCell id="0" />
        <mxCell id="1" parent="0" />
        <mxCell id="yRopjW6I4dyQ1vFUqS02-1" value="Entities" style="rounded=0;whiteSpace=wrap;html=1;" parent="1" vertex="1">
          <mxGeometry x="200" y="480" width="120" height="40" as="geometry" />
        </mxCell>
        <mxCell id="yRopjW6I4dyQ1vFUqS02-2" value="Utils" style="rounded=0;whiteSpace=wrap;html=1;" parent="1" vertex="1">
          <mxGeometry x="400" y="280" width="120" height="40" as="geometry" />
        </mxCell>
        <mxCell id="yRopjW6I4dyQ1vFUqS02-25" style="rounded=0;orthogonalLoop=1;jettySize=auto;html=1;" parent="1" source="yRopjW6I4dyQ1vFUqS02-4" target="yRopjW6I4dyQ1vFUqS02-1" edge="1">
          <mxGeometry relative="1" as="geometry" />
        </mxCell>
        <mxCell id="yRopjW6I4dyQ1vFUqS02-28" style="rounded=0;orthogonalLoop=1;jettySize=auto;html=1;" parent="1" source="yRopjW6I4dyQ1vFUqS02-4" target="yRopjW6I4dyQ1vFUqS02-9" edge="1">
          <mxGeometry relative="1" as="geometry" />
        </mxCell>
        <mxCell id="yRopjW6I4dyQ1vFUqS02-4" value="MQTTBroker" style="rounded=0;whiteSpace=wrap;html=1;" parent="1" vertex="1">
          <mxGeometry x="520" y="400" width="120" height="40" as="geometry" />
        </mxCell>
        <mxCell id="yRopjW6I4dyQ1vFUqS02-26" style="rounded=0;orthogonalLoop=1;jettySize=auto;html=1;" parent="1" source="yRopjW6I4dyQ1vFUqS02-5" target="yRopjW6I4dyQ1vFUqS02-1" edge="1">
          <mxGeometry relative="1" as="geometry" />
        </mxCell>
        <mxCell id="yRopjW6I4dyQ1vFUqS02-29" style="rounded=0;orthogonalLoop=1;jettySize=auto;html=1;" parent="1" source="yRopjW6I4dyQ1vFUqS02-5" target="yRopjW6I4dyQ1vFUqS02-9" edge="1">
          <mxGeometry relative="1" as="geometry" />
        </mxCell>
        <mxCell id="yRopjW6I4dyQ1vFUqS02-5" value="TelegramBot" style="rounded=0;whiteSpace=wrap;html=1;" parent="1" vertex="1">
          <mxGeometry x="360" y="400" width="120" height="40" as="geometry" />
        </mxCell>
        <mxCell id="yRopjW6I4dyQ1vFUqS02-22" style="rounded=0;orthogonalLoop=1;jettySize=auto;html=1;" parent="1" source="yRopjW6I4dyQ1vFUqS02-6" target="yRopjW6I4dyQ1vFUqS02-7" edge="1">
          <mxGeometry relative="1" as="geometry" />
        </mxCell>
        <mxCell id="yRopjW6I4dyQ1vFUqS02-6" value="Repository" style="rounded=0;whiteSpace=wrap;html=1;" parent="1" vertex="1">
          <mxGeometry x="200" y="240" width="120" height="40" as="geometry" />
        </mxCell>
        <mxCell id="yRopjW6I4dyQ1vFUqS02-23" style="rounded=0;orthogonalLoop=1;jettySize=auto;html=1;" parent="1" source="yRopjW6I4dyQ1vFUqS02-7" target="yRopjW6I4dyQ1vFUqS02-1" edge="1">
          <mxGeometry relative="1" as="geometry" />
        </mxCell>
        <mxCell id="yRopjW6I4dyQ1vFUqS02-7" value="Repository.Contracts" style="rounded=0;whiteSpace=wrap;html=1;" parent="1" vertex="1">
          <mxGeometry x="200" y="400" width="120" height="40" as="geometry" />
        </mxCell>
        <mxCell id="yRopjW6I4dyQ1vFUqS02-12" style="rounded=0;orthogonalLoop=1;jettySize=auto;html=1;" parent="1" source="yRopjW6I4dyQ1vFUqS02-8" target="yRopjW6I4dyQ1vFUqS02-9" edge="1">
          <mxGeometry relative="1" as="geometry" />
        </mxCell>
        <mxCell id="yRopjW6I4dyQ1vFUqS02-13" style="rounded=0;orthogonalLoop=1;jettySize=auto;html=1;" parent="1" source="yRopjW6I4dyQ1vFUqS02-8" target="yRopjW6I4dyQ1vFUqS02-6" edge="1">
          <mxGeometry relative="1" as="geometry" />
        </mxCell>
        <mxCell id="yRopjW6I4dyQ1vFUqS02-14" style="rounded=0;orthogonalLoop=1;jettySize=auto;html=1;" parent="1" source="yRopjW6I4dyQ1vFUqS02-8" target="yRopjW6I4dyQ1vFUqS02-10" edge="1">
          <mxGeometry relative="1" as="geometry" />
        </mxCell>
        <mxCell id="yRopjW6I4dyQ1vFUqS02-15" style="rounded=0;orthogonalLoop=1;jettySize=auto;html=1;" parent="1" source="yRopjW6I4dyQ1vFUqS02-8" target="yRopjW6I4dyQ1vFUqS02-11" edge="1">
          <mxGeometry relative="1" as="geometry" />
        </mxCell>
        <mxCell id="yRopjW6I4dyQ1vFUqS02-8" value="WebApp" style="rounded=0;whiteSpace=wrap;html=1;" parent="1" vertex="1">
          <mxGeometry x="640" y="120" width="120" height="40" as="geometry" />
        </mxCell>
        <mxCell id="yRopjW6I4dyQ1vFUqS02-9" value="LoggerService" style="rounded=0;whiteSpace=wrap;html=1;" parent="1" vertex="1">
          <mxGeometry x="640" y="480" width="120" height="40" as="geometry" />
        </mxCell>
        <mxCell id="yRopjW6I4dyQ1vFUqS02-16" style="rounded=0;orthogonalLoop=1;jettySize=auto;html=1;" parent="1" source="yRopjW6I4dyQ1vFUqS02-10" target="yRopjW6I4dyQ1vFUqS02-2" edge="1">
          <mxGeometry relative="1" as="geometry" />
        </mxCell>
        <mxCell id="yRopjW6I4dyQ1vFUqS02-17" style="rounded=0;orthogonalLoop=1;jettySize=auto;html=1;" parent="1" source="yRopjW6I4dyQ1vFUqS02-10" target="yRopjW6I4dyQ1vFUqS02-4" edge="1">
          <mxGeometry relative="1" as="geometry" />
        </mxCell>
        <mxCell id="yRopjW6I4dyQ1vFUqS02-18" style="rounded=0;orthogonalLoop=1;jettySize=auto;html=1;" parent="1" source="yRopjW6I4dyQ1vFUqS02-10" target="yRopjW6I4dyQ1vFUqS02-5" edge="1">
          <mxGeometry relative="1" as="geometry" />
        </mxCell>
        <mxCell id="yRopjW6I4dyQ1vFUqS02-19" style="rounded=0;orthogonalLoop=1;jettySize=auto;html=1;" parent="1" source="yRopjW6I4dyQ1vFUqS02-10" target="yRopjW6I4dyQ1vFUqS02-7" edge="1">
          <mxGeometry relative="1" as="geometry" />
        </mxCell>
        <mxCell id="yRopjW6I4dyQ1vFUqS02-20" style="rounded=0;orthogonalLoop=1;jettySize=auto;html=1;" parent="1" source="yRopjW6I4dyQ1vFUqS02-10" target="yRopjW6I4dyQ1vFUqS02-11" edge="1">
          <mxGeometry relative="1" as="geometry" />
        </mxCell>
        <mxCell id="yRopjW6I4dyQ1vFUqS02-21" style="rounded=0;orthogonalLoop=1;jettySize=auto;html=1;" parent="1" source="yRopjW6I4dyQ1vFUqS02-10" target="yRopjW6I4dyQ1vFUqS02-9" edge="1">
          <mxGeometry relative="1" as="geometry" />
        </mxCell>
        <mxCell id="yRopjW6I4dyQ1vFUqS02-10" value="Service" style="rounded=0;whiteSpace=wrap;html=1;" parent="1" vertex="1">
          <mxGeometry x="560" y="280" width="120" height="40" as="geometry" />
        </mxCell>
        <mxCell id="yRopjW6I4dyQ1vFUqS02-11" value="Service.Contracts" style="rounded=0;whiteSpace=wrap;html=1;" parent="1" vertex="1">
          <mxGeometry x="520" y="200" width="120" height="40" as="geometry" />
        </mxCell>
      </root>
    </mxGraphModel>
  </diagram>
</mxfile>
